<svg xmlns="http://www.w3.org/2000/svg" width="9.151" height="12.116" viewBox="0 0 9.151 12.116">
  <g id="Group_103765" data-name="Group 103765" transform="translate(-2569.812 -4775.279)">
    <path id="Path_63680" data-name="Path 63680" d="M146.271,363.12H140.55a.572.572,0,1,0,0,1.144h5.721a.572.572,0,1,0,0-1.144Z" transform="translate(2430.979 4423.131)" fill="#fff"/>
    <g id="Group_103595" data-name="Group 103595" transform="translate(2569.821 4775.28)">
      <path id="Path_63679" data-name="Path 63679" d="M242.191,223.524a4.3,4.3,0,0,0,2.958-1.033h0a4.787,4.787,0,0,0,1.009-3.575.573.573,0,0,0-.5-.5c-.317-.09-3.182-.132-4.04,1.629-.85-1.759-3.738-1.721-4.039-1.629a.572.572,0,0,0-.5.5,4.787,4.787,0,0,0,1.009,3.576,4.3,4.3,0,0,0,2.958,1.033Zm.7-3.291a3.177,3.177,0,0,1,2.148-.7,2.523,2.523,0,0,1-2.849,2.848,3.181,3.181,0,0,1,.7-2.148Zm-4,1.448a3.175,3.175,0,0,1-.7-2.146,2.521,2.521,0,0,1,2.849,2.846A3.188,3.188,0,0,1,238.891,221.681Z" transform="translate(-237.053 -218.382)" fill="#fff"/>
      <path id="Path_63681" data-name="Path 63681" d="M6.293,0H.572a.572.572,0,0,0,0,1.144H6.293A.572.572,0,0,0,6.293,0Z" transform="translate(3.994 9.092) rotate(-90)" fill="#fff"/>
    </g>
  </g>
</svg>
