<svg xmlns="http://www.w3.org/2000/svg" width="13.293" height="13.293" viewBox="0 0 13.293 13.293">
  <g id="Ai" transform="translate(-9.82 -9.82)">
    <path id="Path_158672" data-name="Path 158672" d="M22.664,23.113H10.27a.45.45,0,0,1-.45-.45V10.27a.45.45,0,0,1,.45-.45H22.664a.45.45,0,0,1,.45.45V22.664a.45.45,0,0,1-.45.45Zm-11.945-.9h11.5v-11.5h-11.5Z" fill="#fff"/>
    <path id="Path_158673" data-name="Path 158673" d="M25.119,25.491,24.858,23.9a1.645,1.645,0,0,0-3.248,0l-.27,1.663-.354,2.122a.455.455,0,1,0,.9.144l.282-1.732.147-.9.171-1.16a.746.746,0,0,1,1.474,0l.189,1.16.147.9.288,1.732a.45.45,0,0,0,.45.378H25.1a.45.45,0,0,0,.378-.521l-.336-2.026Z" transform="translate(-7.816 -8.89)" fill="#fff"/>
    <path id="Path_158674" data-name="Path 158674" d="M25.96,26.214a.447.447,0,0,1-.447.423H22.594a.45.45,0,0,1-.45-.45.459.459,0,0,1,0-.09.447.447,0,0,1,.441-.36H25.5a.447.447,0,0,1,.42.3Zm1.984,2.547a.45.45,0,0,1-.45-.45v-3.3a.45.45,0,1,1,.9,0v3.3A.45.45,0,0,1,27.943,28.761Zm0-4.552a.467.467,0,0,1-.171-.033.452.452,0,0,1-.147-.1.488.488,0,0,1-.1-.147.467.467,0,0,1-.033-.171.45.45,0,0,1,.132-.318.435.435,0,0,1,.069-.057l.078-.042.084-.024a.426.426,0,0,1,.174,0l.084.024.078.042a.632.632,0,0,1,.069.057.45.45,0,0,1,.132.318.467.467,0,0,1-.033.171.488.488,0,0,1-.1.147.453.453,0,0,1-.147.1.467.467,0,0,1-.171.033Z" transform="translate(-8.63 -9.448)" fill="#fff"/>
  </g>
</svg>
