<svg xmlns="http://www.w3.org/2000/svg" width="13.938" height="15.487" viewBox="0 0 13.938 15.487">
  <path id="Path_158671" data-name="Path 158671" d="M3.388,7.42h0A.387.387,0,0,0,3,7.807v3.872a.387.387,0,1,0,.774,0V7.808A.387.387,0,0,0,3.388,7.42Zm9.558-3.563L13.777,2.6a.387.387,0,0,0-.646-.428L12.31,3.414a4.6,4.6,0,0,0-4.681,0L6.808,2.173a.387.387,0,1,0-.646.428l.831,1.256A4.637,4.637,0,0,0,5.323,7.42V14a.387.387,0,0,0,.387.387H8.033V17.1a.387.387,0,0,0,.774,0V14.39h2.323V17.1a.387.387,0,0,0,.774,0V14.39h2.323A.387.387,0,0,0,14.615,14V7.42A4.637,4.637,0,0,0,12.946,3.857Zm.9,9.758H6.1V8.195h7.744ZM6.1,7.42a3.872,3.872,0,0,1,7.744,0Zm10.454,0h0a.387.387,0,0,0-.387.387v3.872a.387.387,0,0,0,.774,0V7.808A.387.387,0,0,0,16.552,7.42Z" transform="translate(-3 -2)" fill="#fff"/>
</svg>
