<svg xmlns="http://www.w3.org/2000/svg" width="13.828" height="13.828" viewBox="0 0 13.828 13.828">
  <g id="Group_139365" data-name="Group 139365" transform="translate(-1.25 -1.25)">
    <path id="Path_158675" data-name="Path 158675" d="M7.34,7.25a.482.482,0,0,1,.46.338l1.608,5.145a.482.482,0,1,1-.921.288l-.457-1.462H6.65l-.457,1.462a.482.482,0,1,1-.921-.288L6.88,7.588A.482.482,0,0,1,7.34,7.25Zm-.389,3.344h.778L7.34,9.35ZM10.4,7.732a.482.482,0,0,1,.482-.482h1.286a1.769,1.769,0,0,1,.5,3.465l1.192,1.907a.482.482,0,0,1-.818.511l-1.466-2.346H11.36v2.09a.482.482,0,1,1-.965,0Zm.965.482V9.823h.8a.8.8,0,0,0,0-1.608Z" transform="translate(-1.427 -2.141)" fill="#fff" fill-rule="evenodd"/>
    <path id="Path_158676" data-name="Path 158676" d="M8.127,1.25H8.2a29.36,29.36,0,0,1,3.556.122,3.669,3.669,0,0,1,2.238.961,4.592,4.592,0,0,1,1.047,3.234.482.482,0,0,1-.964.048,3.691,3.691,0,0,0-.766-2.6,2.727,2.727,0,0,0-1.684-.687,29.022,29.022,0,0,0-3.464-.113A29.022,29.022,0,0,0,4.7,2.328a2.727,2.727,0,0,0-1.684.687A2.727,2.727,0,0,0,2.328,4.7a29.022,29.022,0,0,0-.113,3.464,29.022,29.022,0,0,0,.113,3.464,2.727,2.727,0,0,0,.687,1.684A2.727,2.727,0,0,0,4.7,14a29.019,29.019,0,0,0,3.464.113A29.019,29.019,0,0,0,11.628,14a2.727,2.727,0,0,0,1.684-.687A2.727,2.727,0,0,0,14,11.628a29.019,29.019,0,0,0,.113-3.464.482.482,0,0,1,.965,0V8.2a29.371,29.371,0,0,1-.122,3.556,3.669,3.669,0,0,1-.961,2.238,3.669,3.669,0,0,1-2.238.961,29.371,29.371,0,0,1-3.556.122H8.127a29.371,29.371,0,0,1-3.556-.122,3.669,3.669,0,0,1-2.238-.961,3.669,3.669,0,0,1-.961-2.238A29.36,29.36,0,0,1,1.25,8.2V8.127a29.36,29.36,0,0,1,.122-3.556,3.669,3.669,0,0,1,.961-2.238,3.669,3.669,0,0,1,2.238-.961A29.36,29.36,0,0,1,8.127,1.25Z" fill="#fff" fill-rule="evenodd"/>
  </g>
</svg>
