<svg xmlns="http://www.w3.org/2000/svg" width="15" height="15" viewBox="0 0 15 15">
  <path id="Path_158681" data-name="Path 158681" d="M.115,4.153,2.28,5.334l.024.011.005,0,.019.006.007,0,.019,0h.006a.205.205,0,0,0,.051,0h.006l.026-.005.019-.006.005,0,.024-.011L4.656,4.153a.22.22,0,0,0,.115-.193V1.4a.218.218,0,0,0-.007-.053l0-.006-.007-.02,0-.006a.221.221,0,0,0-.012-.024h0l-.015-.021,0-.005-.014-.016,0,0a.218.218,0,0,0-.043-.032l0,0L2.491.027a.22.22,0,0,0-.21,0L.116,1.208l0,0a.218.218,0,0,0-.043.032l0,0-.014.016,0,.005-.015.021h0a.221.221,0,0,0-.012.024l0,.006q0,.01-.007.02l0,.006A.218.218,0,0,0,0,1.4V3.96a.22.22,0,0,0,.115.193Zm4.216-.323-1.726.941V2.806l1.726-1.02ZM2.386.47l1.72.938L2.386,2.425.666,1.409ZM.44,1.786l1.726,1.02V4.771L.44,3.829ZM8.77,14.037H8.761a.222.222,0,1,0,.009,0Zm.037.249,0-.032.005.035ZM15,1.4a.218.218,0,0,0-.007-.053l0-.006q0-.01-.007-.02l0-.006a.221.221,0,0,0-.012-.024h0l-.015-.021,0-.005-.014-.016,0,0a.218.218,0,0,0-.043-.032l0,0L12.721.027a.22.22,0,0,0-.21,0L10.346,1.208l0,0a.218.218,0,0,0-.043.032l0,0-.014.015,0,.005-.014.021h0a.221.221,0,0,0-.012.024l0,.006-.007.02,0,.006a.218.218,0,0,0-.007.053V3.96a.22.22,0,0,0,.115.193L12.51,5.334l.024.011.005,0,.019.006.007,0,.019,0h.006a.205.205,0,0,0,.051,0h.006l.026-.005.019-.006.005,0,.024-.011,2.165-1.181A.22.22,0,0,0,15,3.96V1.4ZM12.4,4.771l-1.726-.941V1.786L12.4,2.806Zm.22-2.346L10.9,1.409,12.616.47l1.72.938Zm1.945,1.4-1.726.941V2.806l1.726-1.02ZM.674,8.614H.687a.22.22,0,0,0,.206-.232V8.375a.22.22,0,1,0-.438.031l.219-.012-.219.013A.22.22,0,0,0,.674,8.614Zm.067-1.75A.22.22,0,0,0,1,6.691v0A.22.22,0,1,0,.568,6.6l.215.044L.568,6.606a.22.22,0,0,0,.173.258ZM.455,7.5V7.5a.22.22,0,0,0,.206.232H.674A.221.221,0,1,0,.455,7.5ZM6.216,1.051A.22.22,0,1,0,6.172.616l-.009,0a.22.22,0,0,0,.052.433Zm3.378,12.8a.22.22,0,1,0,.12.423l.009,0a.22.22,0,1,0-.128-.42Zm.025-12.7.01,0a.221.221,0,1,0-.01,0ZM7.952.882h.007A.22.22,0,1,0,7.965.443h0a.219.219,0,0,0-.225.213A.221.221,0,0,0,7.952.882ZM8.8.962A.22.22,0,1,0,8.87.529l-.009,0A.22.22,0,1,0,8.8.962ZM7.08.911h.029a.22.22,0,1,0-.029,0ZM5.374,1.3A.22.22,0,1,0,5.306.873L5.3.876a.22.22,0,0,0,.076.426Zm-4.8,8a.218.218,0,0,0,.214.176A.221.221,0,1,0,.57,9.3v0Zm7.353,4.812h0a.22.22,0,1,0,.006.439h.007l0-.22.006.22a.22.22,0,1,0-.013-.439Zm6.138-8.579a.22.22,0,0,0-.158.268l0,.007a.22.22,0,1,0,.424-.117l-.213.054.213-.055a.22.22,0,0,0-.268-.158Zm.5,1.947a.218.218,0,0,0-.22-.218.221.221,0,0,0-.22.221s0,.005,0,.008,0,0,0,.007a.22.22,0,0,0,.439,0v0s0,0,0-.006,0,0,0-.006ZM6.241,13.958l-.01,0a.222.222,0,1,0,.01,0Zm-.058.241v0l.006-.026Zm.892-.108a.22.22,0,0,0-.049.437h.029a.22.22,0,0,0,.02-.439ZM8.122,5.913V5.669a.22.22,0,0,0-.439,0v.2H7.434v-.2a.22.22,0,0,0-.439,0v.2H6.567a.22.22,0,1,0,0,.439h.085V8.7H6.567a.22.22,0,1,0,0,.439h.428v.2a.22.22,0,1,0,.439,0v-.2h.248v.2a.22.22,0,1,0,.439,0V9.087a.807.807,0,0,0,.533-.758V8.086A.8.8,0,0,0,8.4,7.5a.8.8,0,0,0,.254-.586V6.671A.807.807,0,0,0,8.122,5.913Zm.094,2.416a.367.367,0,0,1-.366.366H7.091V7.72h.758a.367.367,0,0,1,.366.366Zm0-1.415a.367.367,0,0,1-.366.366H7.091V6.305h.758a.367.367,0,0,1,.366.366Zm6.778,4.07,0-.006q0-.01-.007-.02l0-.006a.221.221,0,0,0-.012-.024h0l-.015-.021,0-.005-.014-.016,0,0a.218.218,0,0,0-.043-.032l0,0L12.721,9.667a.22.22,0,0,0-.21,0l-2.165,1.181,0,0a.218.218,0,0,0-.043.032l0,0-.014.015,0,.005-.015.021h0a.221.221,0,0,0-.012.024l0,.006-.007.02,0,.006a.218.218,0,0,0-.007.053V13.6a.22.22,0,0,0,.115.193l2.165,1.181.024.011.005,0,.019.006.007,0,.019,0h.006a.205.205,0,0,0,.051,0h.006l.026-.005.019-.006.005,0,.024-.011,2.165-1.181A.22.22,0,0,0,15,13.6V11.038a.218.218,0,0,0-.007-.053ZM12.4,14.41l-1.726-.941V11.426l1.726,1.02Zm.22-2.346L10.9,11.048l1.72-.938,1.72.938Zm1.945,1.4-1.726.941V12.445l1.726-1.02ZM14.5,6.582a.221.221,0,1,0,0,.005Zm-9.739,4.4,0-.006-.007-.02,0-.006a.221.221,0,0,0-.012-.024h0l-.015-.021,0-.005-.014-.016,0,0a.218.218,0,0,0-.044-.032h0L2.491,9.667a.22.22,0,0,0-.21,0L.116,10.848l0,0a.218.218,0,0,0-.043.032l0,0L.051,10.9l0,.005-.014.021h0a.221.221,0,0,0-.012.024l0,.006q0,.01-.007.02l0,.006A.218.218,0,0,0,0,11.038V13.6a.22.22,0,0,0,.115.193L2.28,14.973l.024.011.005,0,.019.006.007,0,.019,0h.006a.205.205,0,0,0,.051,0h.006l.026-.005.019-.006.005,0,.024-.011,2.165-1.181a.22.22,0,0,0,.115-.193V11.038a.218.218,0,0,0-.007-.053Zm-2.6,3.426L.44,13.469V11.426l1.726,1.02Zm.22-2.346L.666,11.048l1.72-.938,1.72.938Zm1.945,1.4-1.726.941V12.445l1.726-1.02Zm-3.118-7.6A.22.22,0,1,0,.8,5.728v0A.22.22,0,0,0,1,6.018a.222.222,0,0,0,.21-.152ZM10.834,7.5A3.333,3.333,0,1,0,7.5,10.833,3.333,3.333,0,0,0,10.834,7.5ZM7.5,10.394A2.894,2.894,0,1,1,10.395,7.5,2.894,2.894,0,0,1,7.5,10.394Zm6.674-1.372a.221.221,0,1,0,.156.274V9.29a.22.22,0,0,0-.158-.268Zm.141-.865a.22.22,0,0,0-.247.189v.005A.22.22,0,1,0,14.5,8.4l-.218-.03L14.5,8.4A.22.22,0,0,0,14.315,8.157Zm-8.89,5.561-.008,0a.222.222,0,1,0,.008,0Zm-.091.244v0l.013-.035Z" transform="translate(-0.001 0)" fill="#fff"/>
</svg>
