<svg xmlns="http://www.w3.org/2000/svg" width="16.652" height="10.871" viewBox="0 0 16.652 10.871">
  <g id="Group_139367" data-name="Group 139367" transform="translate(-74.263 -82.611)">
    <path id="Path_158683" data-name="Path 158683" d="M130.512,149.521a5.784,5.784,0,0,1-4.15,1.2h-3.476a8.016,8.016,0,0,1-1.232-.049,4.622,4.622,0,0,1-3.833-3.174c-.011-.042-.037-.032-.076-.033h-.511c-.46,0-.713-.079-.731-.592l0-1.409c0-.4-.107-1.261.2-1.575.252-.257.811-.183,1.148-.181a.813.813,0,0,0,.078-.2c.476-1.136,1.667-1.311,2.72-1.45l.005-.9a.19.19,0,0,0-.056-.077l-.041-.03c-.424-.334-.111-1.141.585-1.2.757.035,1.043,1.062.32,1.308l-.1.037.006.762c.428.019.851-.047,1.279-.048h5.037a3.217,3.217,0,0,1,.707.043l.029-.553c0-.237.008-.145-.184-.255-.9-.513.365-1.932,1.063-.945.158.224.179.741-.086.909a.485.485,0,0,0-.086.07v.892a2.653,2.653,0,0,0,.378.05,2.615,2.615,0,0,1,2.193,1.358c.074.147.023.222.22.221h.414c.661,0,.791.311.792.878v1.764a1.992,1.992,0,0,1-.051.8l-.013.026c-.143.3-.366.3-.65.3l-.572,0a.308.308,0,0,0-.036.086A4.383,4.383,0,0,1,130.512,149.521Zm-6.093-6.9-1.35,0c-.124,0-.247.025-.372.029l-.74.015c-.5.026-1.014.085-1.511.158-.933.137-1.783.331-2.007,1.367a5.022,5.022,0,0,0-.043,1.037v1.281c.018,2.129,2.046,3.491,4.038,3.5h4.313a5.257,5.257,0,0,0,.983-.034,3.919,3.919,0,0,0,3.459-2.939,4.168,4.168,0,0,0,.054-.893v-1.474a1.7,1.7,0,0,0-1.6-1.794l-1.1-.164c-.057-.006-.111-.023-.167-.028l-.615-.027c-.1,0-.206-.024-.311-.027Zm7.522,1.814,0,2.093a.894.894,0,0,0,.005.206l.281,0a.465.465,0,0,1,.137.005.394.394,0,0,0,.04-.235v-2.075Zm-14.716,0,0,2.3.461,0,0-2.3Z" transform="translate(-42.221 -57.239)" fill="#fff"/>
    <path id="Path_158684" data-name="Path 158684" d="M162.667,210.143a2.789,2.789,0,0,1-1.987-.638,1.589,1.589,0,0,1-.3-2.393,2.807,2.807,0,0,1,1.98-.817c1.656-.078,3.579,1.524,2.181,3.065A2.673,2.673,0,0,1,162.667,210.143Zm-.379-3.138a2.053,2.053,0,0,0-1.382.585c-.859,1.016.772,1.932,1.783,1.849,1.056-.066,2.288-1.02,1.148-1.987A2.228,2.228,0,0,0,162.288,207.005Zm6.833,3.131a5.1,5.1,0,0,1-.677-.018c-1.443-.179-2.623-1.71-1.53-2.959a2.89,2.89,0,0,1,2-.863h0c1.764-.086,3.561,1.475,2.163,3.016A2.814,2.814,0,0,1,169.121,210.136Zm-.256-3.131a2.133,2.133,0,0,0-1.453.656.938.938,0,0,0,.251,1.383,2.278,2.278,0,0,0,1.531.384c1.087-.121,2.4-1.14,1.143-2.049A2.266,2.266,0,0,0,168.865,207.005Z" transform="translate(-83.178 -119.831)" fill="#fff"/>
    <path id="Path_158685" data-name="Path 158685" d="M190.7,229.487c-1.073.041-1.256-1.306-.161-1.439C191.579,227.992,191.813,229.312,190.7,229.487Zm6.533-.014c-1.091.092-1.27-1.257-.213-1.427C198.108,228,198.249,229.3,197.231,229.473Zm-1.641,2.915-.164.057a6.305,6.305,0,0,1-3.45-.095.369.369,0,0,1,.072-.713,3.281,3.281,0,0,1,.677.18,5.21,5.21,0,0,0,2.376-.034,1.136,1.136,0,0,1,.55-.112C196.021,231.761,196,232.192,195.59,232.388Z" transform="translate(-111.288 -140.323)" fill="#fff"/>
  </g>
</svg>
