<svg xmlns="http://www.w3.org/2000/svg" width="11.977" height="14.74" viewBox="0 0 11.977 14.74">
  <path id="Path_158696" data-name="Path 158696" d="M13.919,14.74H9.6a.306.306,0,0,1-.217-.09L5.594,10.841a.308.308,0,0,1,0-.434l3.79-3.8A.31.31,0,0,1,9.6,6.516h4.317a.308.308,0,0,1,.218.523l-3.568,3.585,3.568,3.59a.307.307,0,0,1-.218.524Zm-4.19-.614h3.452L9.918,10.842a.307.307,0,0,1,0-.433L13.18,7.131H9.729L6.245,10.625Zm-5-4.271a.306.306,0,0,1-.217-.09L2.34,7.587a.308.308,0,0,1,0-.434L9.376.09A.308.308,0,0,1,9.658.007H13.91a.308.308,0,0,1,.218.523L4.942,9.765A.307.307,0,0,1,4.724,9.855ZM2.991,7.37,4.725,9.112,13.171.621H9.714Z" transform="translate(-2.25 0)" fill="#fff"/>
</svg>
