<svg xmlns="http://www.w3.org/2000/svg" width="16.605" height="8.756" viewBox="0 0 16.605 8.756">
  <path id="Path_158680" data-name="Path 158680" d="M1.637.794a.766.766,0,0,1-.236.583A.848.848,0,0,1,.794,1.6.764.764,0,0,1,.23,1.37.779.779,0,0,1,0,.794.751.751,0,0,1,.236.223.813.813,0,0,1,.818,0,.811.811,0,0,1,1.4.223a.75.75,0,0,1,.236.57ZM1.489,8.619H.149V2.592H1.488V8.619Zm8.928-4.266a4.792,4.792,0,0,1-.967,3.1,3.494,3.494,0,0,1-2.889,1.3A3.379,3.379,0,0,1,3.783,7.478,4.571,4.571,0,0,1,2.828,4.5,4.715,4.715,0,0,1,3.82,1.438,3.485,3.485,0,0,1,6.672.124,3.408,3.408,0,0,1,9.462,1.389,4.524,4.524,0,0,1,10.417,4.353ZM8.991,4.4a3.945,3.945,0,0,0-.558-2.133A2.013,2.013,0,0,0,6.622,1.2,2.035,2.035,0,0,0,4.775,2.294a4.088,4.088,0,0,0-.546,2.171A3.963,3.963,0,0,0,4.786,6.61,2.04,2.04,0,0,0,6.609,7.676,2.035,2.035,0,0,0,8.457,6.585,4.179,4.179,0,0,0,8.991,4.4Zm7.615,1.872a2.226,2.226,0,0,1-.744,1.736,3.3,3.3,0,0,1-2.282.732,4,4,0,0,1-2.17-.521l.31-1.116a3.728,3.728,0,0,0,1.935.521,1.825,1.825,0,0,0,1.178-.341,1.113,1.113,0,0,0,.421-.911,1.163,1.163,0,0,0-.347-.856,3.23,3.23,0,0,0-1.153-.645q-2.195-.818-2.2-2.394A2.112,2.112,0,0,1,12.332.793,3.067,3.067,0,0,1,14.384.136a4.059,4.059,0,0,1,1.9.4l-.334,1.092a3.294,3.294,0,0,0-1.6-.384,1.617,1.617,0,0,0-1.1.347.993.993,0,0,0-.335.757,1.021,1.021,0,0,0,.384.818,4.363,4.363,0,0,0,1.215.645A4.11,4.11,0,0,1,16.1,4.824a2.127,2.127,0,0,1,.509,1.451Z" fill="#fff"/>
</svg>
