<svg xmlns="http://www.w3.org/2000/svg" width="18.382" height="11.196" viewBox="0 0 18.382 11.196">
  <g id="Group_139364" data-name="Group 139364" transform="translate(-2.51 -24.983)">
    <g id="Group_139363" data-name="Group 139363" transform="translate(2.51 24.983)">
      <path id="Path_158669" data-name="Path 158669" d="M9.628,33.453a2.771,2.771,0,1,0-2.771-2.712A2.745,2.745,0,0,0,9.628,33.453Zm0-4.821A2.153,2.153,0,1,1,7.476,30.74a2.134,2.134,0,0,1,2.152-2.107ZM11.6,33.912a.3.3,0,0,1-.03.427,2.982,2.982,0,0,1-3.885,0,.305.305,0,0,1,.406-.456,2.352,2.352,0,0,0,3.073,0A.313.313,0,0,1,11.6,33.912ZM7.135,34.7a4.132,4.132,0,0,0,2.731.863,4.09,4.09,0,0,0,2.256-.863.305.305,0,0,1,.387.472,4.669,4.669,0,0,1-5.757,0,.305.305,0,0,1,.385-.473Zm.755-7.35a.3.3,0,0,1-.2-.531A3.007,3.007,0,0,1,9.572,26.1a3.089,3.089,0,0,1,2,.719.305.305,0,0,1-.406.456,2.352,2.352,0,0,0-3.073,0A.316.316,0,0,1,7.89,27.35Zm4.667-.939a.312.312,0,0,1-.435.046,4.007,4.007,0,0,0-4.987,0A.314.314,0,0,1,6.7,26.41a.3.3,0,0,1,.05-.425A4.782,4.782,0,0,1,9.9,24.99a4.728,4.728,0,0,1,2.6.994.3.3,0,0,1,.048.425Zm-8.592-.959A1.442,1.442,0,0,0,2.51,26.877v7.857a1.455,1.455,0,0,0,2.91,0V26.877A1.442,1.442,0,0,0,3.965,25.452ZM4.8,34.734a.837.837,0,0,1-1.674,0V26.877a.837.837,0,0,1,1.674,0Zm14.858-9.28H14.4a1.216,1.216,0,0,0-.879.371,1.26,1.26,0,0,0,.879,2.134h1.233v6.8a1.4,1.4,0,1,0,2.795,0v-6.8h1.233a1.253,1.253,0,0,0,0-2.505Zm.432,1.716a.6.6,0,0,1-.432.184H18.118a.305.305,0,0,0-.309.3v7.1a.779.779,0,1,1-1.557,0v-7.1a.306.306,0,0,0-.309-.3H14.4a.649.649,0,0,1,0-1.3h5.257a.655.655,0,0,1,.432,1.111Z" transform="translate(-2.51 -24.983)" fill="#fff"/>
    </g>
  </g>
</svg>
