<svg xmlns="http://www.w3.org/2000/svg" width="18.682" height="10.898" viewBox="0 0 18.682 10.898">
  <g id="Group_139366" data-name="Group 139366" transform="translate(0 -5)">
    <path id="Path_158677" data-name="Path 158677" d="M9.341,15.9C4.1,15.9,0,13.5,0,10.449S4.1,5,9.341,5s9.341,2.394,9.341,5.449S14.579,15.9,9.341,15.9Zm0-10.119C4.62,5.778.778,7.873.778,10.449s3.841,4.67,8.562,4.67,8.562-2.095,8.562-4.67S14.062,5.778,9.341,5.778Z" fill="#fff"/>
    <path id="Path_158678" data-name="Path 158678" d="M5.39,14.009a.389.389,0,0,1-.385-.453l.257-1.541q0-.016.005-.031l.516-3.1a.389.389,0,0,1,.384-.326H7.235a1.442,1.442,0,0,1,1.417,1.707l-.151.806a1.69,1.69,0,0,1-1.66,1.379H5.979l-.205,1.231A.389.389,0,0,1,5.39,14.009Zm.718-2.335H6.84a.912.912,0,0,0,.9-.743l.151-.806a.664.664,0,0,0-.652-.786H6.5Zm7.26,2.335a.389.389,0,0,1-.385-.453l.257-1.541q0-.016.005-.031l.516-3.1a.389.389,0,0,1,.384-.326h1.067a1.442,1.442,0,0,1,1.417,1.707l-.151.806a1.69,1.69,0,0,1-1.66,1.379h-.862l-.205,1.231a.389.389,0,0,1-.383.325Zm.718-2.335h.732a.912.912,0,0,0,.9-.743l.151-.806a.664.664,0,0,0-.652-.786h-.737Zm-4.416.778A.389.389,0,0,1,9.287,12l.778-4.67a.389.389,0,0,1,.768.128l-.778,4.67A.389.389,0,0,1,9.671,12.452Z" transform="translate(-1.108 -0.446)" fill="#fff"/>
    <path id="Path_158679" data-name="Path 158679" d="M13.391,13a.389.389,0,0,1-.386-.444l.279-1.96a.28.28,0,0,0-.277-.321H11.639a.389.389,0,0,1,0-.778h1.368a1.059,1.059,0,0,1,1.048,1.21l-.279,1.959a.389.389,0,0,1-.385.334Z" transform="translate(-2.493 -0.997)" fill="#fff"/>
  </g>
</svg>
