<svg xmlns="http://www.w3.org/2000/svg" width="17.018" height="17.233" viewBox="0 0 17.018 17.233">
  <g id="Group_139369" data-name="Group 139369" transform="translate(-24.835 -24.19)">
    <path id="Path_158687" data-name="Path 158687" d="M146.777,146.819c.032.044.059.092.1.14s.074.079.114.121.1.1.153.152c.075.074.148.155.228.229.023.021.047.04.072.059s.077.053.116.082a.076.076,0,1,0,.116-.1c-.025-.05-.047-.1-.076-.145a.584.584,0,0,0-.039-.057,2.7,2.7,0,0,0-.232-.25,3.222,3.222,0,0,0-.251-.23.608.608,0,0,0-.056-.04c-.05-.031-.1-.053-.142-.078a.076.076,0,1,0-.1.114Zm-.578,2.067c-.028-.048-.053-.1-.088-.148a.707.707,0,0,0-.043-.058c-.072-.088-.157-.175-.244-.265s-.166-.173-.258-.252a.691.691,0,0,0-.058-.044c-.049-.034-.1-.06-.147-.09a.076.076,0,0,0-.1.11c.032.048.059.1.093.143.014.02.028.038.044.057.079.09.165.174.246.257s.169.176.252.252c.018.017.036.032.055.046.049.037.1.065.141.1a.076.076,0,0,0,.111-.1Z" transform="translate(-110.452 -112.376)" fill="#fff" fill-rule="evenodd"/>
    <path id="Path_158688" data-name="Path 158688" d="M154.566,156.742a.871.871,0,0,1-.2-.715,1.271,1.271,0,0,1,.171-.437,2.575,2.575,0,0,1,.482-.579l0,0a1.561,1.561,0,0,1,.866-.414,1.008,1.008,0,0,1,.827.36l.009.009s.752.715,1.539,1.477c.136.132.274.264.41.393.217.206.43.4.616.587.1.1.193.191.277.278a.126.126,0,1,0,.192-.164c-.115-.152-.25-.322-.4-.5-.195-.23-.411-.476-.637-.714-.786-.829-1.64-1.611-1.7-1.667a1.4,1.4,0,0,0-1.165-.482,2.041,2.041,0,0,0-1.125.543l0,0a2.783,2.783,0,0,0-.541.689,1.485,1.485,0,0,0-.176.589,1.153,1.153,0,0,0,.377.944.126.126,0,0,0,.167-.19Z" transform="translate(-118.513 -119.238)" fill="#fff" fill-rule="evenodd"/>
    <path id="Path_158689" data-name="Path 158689" d="M163.321,185.961a1.833,1.833,0,0,1,.411.936,1.077,1.077,0,0,1-.339.875l-.006.007a2.241,2.241,0,0,1-1.106.7.823.823,0,0,1-.725-.224c-.195-.178-.418-.4-.655-.632-.41-.409-.855-.883-1.278-1.316-.278-.286-.547-.552-.778-.783-.212-.211-.395-.387-.526-.516a.126.126,0,1,0-.186.171c.2.235.509.625.887,1.061.192.221.4.453.618.685.569.614,1.177,1.231,1.629,1.646a1.227,1.227,0,0,0,1.087.326,2.769,2.769,0,0,0,1.346-.849l-.006.007a1.421,1.421,0,0,0,.4-1.2,1.629,1.629,0,0,0-.156-.481,2.215,2.215,0,0,0-.435-.59.126.126,0,0,0-.179.178Z" transform="translate(-122.255 -147.494)" fill="#fff" fill-rule="evenodd"/>
    <path id="Path_158690" data-name="Path 158690" d="M112.1,101.182a1.18,1.18,0,0,0-.12.082c-.023.017-.047.037-.074.061-.056.052-.12.119-.2.2l-.2.2c-.023.024-.048.048-.071.074s-.029.034-.043.053c-.034.047-.062.095-.1.146a.076.076,0,0,0,.1.11c.05-.029.1-.054.142-.084a.605.605,0,0,0,.056-.042,3.387,3.387,0,0,0,.249-.239c.1-.1.177-.183.235-.255a.624.624,0,0,0,.041-.056,1.06,1.06,0,0,0,.082-.145.076.076,0,1,0-.114-.1Zm-.727-.791s-.078.045-.2.131c-.026.018-.053.038-.082.061-.11.089-.242.2-.387.331-.122.106-.255.217-.382.336-.025.023-.048.048-.072.073-.056.06-.105.121-.158.181a.076.076,0,0,0,.1.117c.069-.041.139-.079.208-.124.029-.019.057-.038.084-.059.139-.106.269-.222.392-.329.145-.127.277-.244.379-.344.026-.026.05-.05.071-.074.1-.114.153-.187.153-.187a.076.076,0,0,0-.1-.112Zm-.731-.74a.964.964,0,0,0-.14.068.546.546,0,0,0-.054.036,3.053,3.053,0,0,0-.245.21,2.522,2.522,0,0,0-.227.229.52.52,0,0,0-.039.053c-.029.045-.05.088-.076.135a.076.076,0,1,0,.112.1c.046-.031.091-.055.136-.087.017-.012.034-.025.049-.039s.046-.043.069-.064l.185-.175c.07-.066.136-.123.186-.175a.859.859,0,0,0,.059-.066,1.051,1.051,0,0,0,.079-.11.076.076,0,0,0-.095-.118Zm-1.74.653s.059-.041.166-.13c.032-.026.067-.057.105-.093.081-.077.176-.175.29-.287l.29-.287c.035-.034.071-.069.106-.106s.045-.049.067-.075c.053-.064.1-.131.155-.2a.076.076,0,1,0-.1-.111c-.069.046-.134.088-.2.134-.028.02-.054.041-.079.063-.14.121-.259.242-.366.348-.143.143-.262.266-.349.366-.024.028-.045.054-.064.079a2.039,2.039,0,0,0-.134.2.076.076,0,1,0,.113.1Zm-.473-.971a1.409,1.409,0,0,0,.161-.093c.02-.013.041-.028.064-.046.084-.067.183-.157.291-.259.089-.084.186-.175.275-.277a.751.751,0,0,0,.048-.062c.036-.052.066-.1.1-.158a.076.076,0,0,0-.111-.1c-.054.038-.108.071-.161.111-.021.015-.04.032-.059.049s-.056.052-.084.079l-.226.216c-.085.081-.164.153-.226.217-.028.029-.051.056-.072.081a1.6,1.6,0,0,0-.1.131.076.076,0,1,0,.1.115Zm-5.985-6.526c-.042,0-.1.129-.111.171,0,.013-.014.17-.013.241a2.351,2.351,0,0,0,.018.24.834.834,0,0,0,.036.084c.017.046.156,0,.157,0a.845.845,0,0,0,.034-.085,2.379,2.379,0,0,0,.012-.241c0-.071-.015-.228-.018-.24a.616.616,0,0,0-.034-.084C102.513,92.862,102.477,92.807,102.445,92.807Z" transform="translate(-71.085 -62.948)" fill="#fff" fill-rule="evenodd"/>
    <path id="Path_158691" data-name="Path 158691" d="M71.882,66.122c-.034.014-.085.051-.086.079s.1.1.165.115c.012,0,.164.017.232.018a2.227,2.227,0,0,0,.233-.012c.062-.019.167-.07.168-.111s-.122-.1-.165-.115a2.2,2.2,0,0,0-.232-.018c-.069,0-.221.009-.233.013A.583.583,0,0,0,71.882,66.122Zm-1.362-2a2.934,2.934,0,0,1,.434-.209q.089-.036.194-.073a3.115,3.115,0,0,1,1.009-.187,3.336,3.336,0,0,1,1.015.158c.128.039.259.082.395.135.085.034.172.068.26.109a.076.076,0,1,0,.075-.132,3.573,3.573,0,0,0-.446-.258q-.1-.049-.2-.086a3.044,3.044,0,0,0-1.1-.183,3,3,0,0,0-1.092.217,2.332,2.332,0,0,0-.267.131,2.038,2.038,0,0,0-.368.258.076.076,0,0,0,.094.119Zm3.846.386a2.96,2.96,0,0,1,.2.424q.034.087.07.189a3.417,3.417,0,0,1,.2.985,3.814,3.814,0,0,1-.1,1c-.028.128-.059.259-.1.4-.025.086-.05.173-.081.262a.076.076,0,1,0,.139.062,3.8,3.8,0,0,0,.212-.454q.039-.1.067-.205A3.345,3.345,0,0,0,75.09,66.1a3.209,3.209,0,0,0-.228-1.059,2.345,2.345,0,0,0-.127-.261,2.008,2.008,0,0,0-.25-.36.076.076,0,1,0-.12.093Zm-.428,3.965a3.971,3.971,0,0,1-.418.119l-.183.042a4.617,4.617,0,0,1-.927.115,5.007,5.007,0,0,1-.931-.081c-.12-.021-.243-.042-.37-.069-.081-.018-.163-.035-.247-.057a.076.076,0,0,0-.051.143,3.917,3.917,0,0,0,.428.17q.1.031.191.053a3.951,3.951,0,0,0,.985.1,4,4,0,0,0,.981-.137c.069-.019.132-.039.189-.061a2.287,2.287,0,0,0,.422-.2.076.076,0,0,0-.069-.135ZM69.774,64.7a1.949,1.949,0,0,0-.21.355,2.169,2.169,0,0,0-.1.254,2.881,2.881,0,0,0-.134,1.014,2.829,2.829,0,0,0,.221,1c.026.061.056.123.09.184a3.184,3.184,0,0,0,.262.4.076.076,0,0,0,.128-.082c-.041-.079-.076-.156-.11-.233-.055-.121-.1-.24-.141-.355a3.138,3.138,0,0,1-.193-.92,3.047,3.047,0,0,1,.11-.934q.027-.1.052-.182a2.994,2.994,0,0,1,.154-.413.076.076,0,0,0-.127-.083Z" transform="translate(-40.816 -35.971)" fill="#fff" fill-rule="evenodd"/>
    <path id="Path_158692" data-name="Path 158692" d="M61.468,53.5c-.018.08-.038.157-.053.239-.006.034-.011.068-.015.1-.018.17-.026.343-.032.519s-.013.343,0,.521c0,.035,0,.069.009.1.01.081.026.16.04.242a.076.076,0,0,0,.152,0c.01-.074.023-.144.032-.216.006-.048.011-.1.013-.144.01-.171.01-.339.015-.5,0-.113.009-.225.012-.336,0-.086.007-.172,0-.258s-.015-.173-.022-.26a.076.076,0,0,0-.151-.01Zm2.24,3.4s.09.011.241.019q.048,0,.1,0c.135,0,.3-.01.479-.015.153,0,.316,0,.477-.009.055,0,.109,0,.163-.007.085-.007.165-.019.246-.026a.076.076,0,1,0,.011-.151c-.079-.018-.158-.037-.243-.05-.035-.005-.069-.009-.1-.012-.175-.012-.354-.008-.523,0-.194.006-.375.015-.521.031-.037,0-.072.009-.1.015a2.36,2.36,0,0,0-.24.056.076.076,0,1,0,.014.151Zm-2.139,1.862s-.013.055-.027.149c-.007.043-.014.092-.019.149-.006.082-.007.178-.008.278,0,.134,0,.279,0,.418,0,.118,0,.232.014.333,0,.035.008.069.014.1a1.484,1.484,0,0,0,.061.239.076.076,0,0,0,.149-.03c0-.031.006-.075.009-.131s.01-.127.012-.2c0-.144,0-.314-.005-.482,0-.111,0-.221,0-.322s0-.175-.01-.247a2.051,2.051,0,0,0-.037-.247.076.076,0,1,0-.152,0Zm-3.653-1.592s.106.011.288.02q.057,0,.123,0c.159,0,.355,0,.574,0,.179,0,.373.007.574.011.065,0,.131,0,.2,0,.1,0,.2-.011.3-.015a.076.076,0,1,0,.015-.151c-.1-.022-.191-.045-.288-.061-.042-.007-.083-.013-.125-.017-.218-.021-.431-.024-.626-.025-.24,0-.455,0-.626.017q-.067.005-.125.013a2.922,2.922,0,0,0-.29.054.076.076,0,0,0,.012.151Z" transform="translate(-30.273 -26.824)" fill="#fff" fill-rule="evenodd"/>
    <path id="Path_158693" data-name="Path 158693" d="M101.982,24.451a6.5,6.5,0,0,1,2.666.623,5.593,5.593,0,0,1,1.5,1.024,6.555,6.555,0,0,1,1.849,4.087,6.084,6.084,0,0,1-1.484,4.479,5.332,5.332,0,0,1-1.572,1.121,8.137,8.137,0,0,1-2.857.729.126.126,0,0,0,.016.252,8.193,8.193,0,0,0,3-.63,5.42,5.42,0,0,0,1.711-1.182,6.475,6.475,0,0,0,1.608-4.818v0a6.91,6.91,0,0,0-1.991-4.334,5.66,5.66,0,0,0-1.624-1.072,6.456,6.456,0,0,0-2.837-.53.126.126,0,0,0,.014.252Z" transform="translate(-70.652)" fill="#fff" fill-rule="evenodd"/>
    <path id="Path_158694" data-name="Path 158694" d="M31.43,36.593a7.282,7.282,0,0,1-2.844-.587,5.481,5.481,0,0,1-1.605-1.046,6.027,6.027,0,0,1-1.717-4.381.011.011,0,0,0,0,0A6.433,6.433,0,0,1,26.919,26.2a5.145,5.145,0,0,1,1.569-1.072,7.453,7.453,0,0,1,2.836-.6.126.126,0,1,0,0-.253,7.556,7.556,0,0,0-2.985.5,5.256,5.256,0,0,0-1.713,1.129,6.8,6.8,0,0,0-1.788,4.686A6.391,6.391,0,0,0,26.7,35.26a5.593,5.593,0,0,0,1.741,1.1,7.185,7.185,0,0,0,3.008.487.126.126,0,1,0-.016-.252Z" transform="translate(0 -0.079)" fill="#fff" fill-rule="evenodd"/>
    <path id="Path_158695" data-name="Path 158695" d="M47.029,41.685a4.867,4.867,0,0,0-3.59,1.3,4.739,4.739,0,0,0-1.062,1.645,5.82,5.82,0,0,0-.4,1.92v0a4.942,4.942,0,0,0,1.45,3.713,5.738,5.738,0,0,0,3.771,1.338,5.535,5.535,0,0,0,3.628-1.327,4.51,4.51,0,0,0,1.251-3.629,6.2,6.2,0,0,0-.5-2.317,4.305,4.305,0,0,0-.906-1.309,5.216,5.216,0,0,0-3.635-1.34Zm0,.152h0a5.03,5.03,0,0,1,3.473,1.344,4.153,4.153,0,0,1,.844,1.251,6.016,6.016,0,0,1,.473,2.23,4.277,4.277,0,0,1-1.18,3.436,5.256,5.256,0,0,1-3.452,1.253,5.462,5.462,0,0,1-3.6-1.269,4.7,4.7,0,0,1-1.374-3.528,5.714,5.714,0,0,1,.378-1.831,4.579,4.579,0,0,1,.992-1.578A4.7,4.7,0,0,1,47.032,41.836Z" transform="translate(-15.724 -16.046)" fill="#fff" fill-rule="evenodd"/>
  </g>
</svg>
