<svg xmlns="http://www.w3.org/2000/svg" width="15.87" height="17.839" viewBox="0 0 15.87 17.839">
  <path id="Path_158666" data-name="Path 158666" d="M10.239,9.526a1.593,1.593,0,1,0,2.176.583A1.593,1.593,0,0,0,10.239,9.526Zm7.14,1.728q-.157-.179-.331-.36.122-.128.235-.256C18.715,9.03,19.32,7.416,18.76,6.446c-.537-.93-2.135-1.208-4.135-.819q-.3.058-.588.13-.056-.193-.119-.384C13.239,3.329,12.143,2,11.023,2,9.948,2,8.91,3.246,8.248,5.173q-.1.285-.181.575-.2-.048-.392-.089c-2.11-.433-3.81-.148-4.369.823-.536.931.025,2.453,1.363,3.989q.2.228.41.446c-.165.17-.322.341-.468.51-1.306,1.515-1.835,3.011-1.3,3.938.553.957,2.229,1.27,4.268.869q.248-.049.493-.111.09.314.2.622c.659,1.888,1.692,3.094,2.762,3.093,1.106,0,2.214-1.3,2.885-3.263.053-.155.1-.317.151-.483q.317.079.638.14c1.965.372,3.525.079,4.06-.848.552-.958-.017-2.565-1.386-4.129ZM3.966,6.863c.344-.6,1.733-.831,3.555-.457q.175.036.355.08A18.252,18.252,0,0,0,7.5,8.875a18.63,18.63,0,0,0-1.877,1.511q-.2-.2-.381-.415h0C4.1,8.654,3.643,7.424,3.966,6.863Zm3.467,5.109c-.455-.345-.879-.7-1.263-1.053.384-.353.807-.705,1.262-1.049q-.024.525-.024,1.052T7.432,11.972Zm0,3.515a6.455,6.455,0,0,1-2.354.083,1.575,1.575,0,0,1-1.107-.585c-.325-.563.1-1.764,1.217-3.06q.211-.244.435-.474A18.276,18.276,0,0,0,7.5,12.967a18.555,18.555,0,0,0,.38,2.419Q7.658,15.442,7.432,15.487Zm6.334-7.171q-.449-.283-.909-.547t-.916-.5c.529-.222,1.049-.412,1.551-.567a16.25,16.25,0,0,1,.274,1.616Zm-4.8-2.9c.567-1.651,1.407-2.658,2.055-2.659.69,0,1.585,1.087,2.171,2.852q.057.173.108.347a18.265,18.265,0,0,0-2.254.866A17.894,17.894,0,0,0,8.8,5.952Q8.878,5.684,8.969,5.421Zm-.357,1.27a16.329,16.329,0,0,1,1.543.573q-.937.484-1.826,1.054C8.4,7.748,8.495,7.2,8.611,6.691Zm-.282,6.833q.443.284.9.547t.943.513a16.229,16.229,0,0,1-1.556.593C8.5,14.657,8.4,14.1,8.329,13.524ZM13.2,16.329a6.454,6.454,0,0,1-1.1,2.081h0a1.575,1.575,0,0,1-1.06.666c-.65,0-1.479-.968-2.042-2.583q-.1-.286-.183-.578a17.936,17.936,0,0,0,2.256-.9,18.552,18.552,0,0,0,2.272.873q-.064.222-.138.441Zm.323-1.181c-.508-.157-1.035-.35-1.572-.576q.454-.239.914-.5t.921-.559a16.191,16.191,0,0,1-.263,1.639Zm.4-4.23q0,.813-.051,1.624c-.439.3-.9.588-1.386.866s-.957.533-1.424.763q-.737-.353-1.447-.762t-1.378-.864q-.061-.811-.062-1.625h0q0-.813.061-1.625c.439-.3.9-.59,1.376-.865s.961-.53,1.44-.76q.728.354,1.431.759t1.382.855q.058.816.058,1.634Zm.853-4.543c1.714-.333,3.006-.109,3.33.452.345.6-.149,1.916-1.386,3.306h0q-.1.115-.213.231a17.893,17.893,0,0,0-1.912-1.505A17.875,17.875,0,0,0,14.227,6.5q.277-.068.543-.12ZM14.654,9.84a16.2,16.2,0,0,1,1.3,1.059,16.161,16.161,0,0,1-1.3,1.078q.021-.53.02-1.06T14.654,9.84ZM18.1,15c-.324.563-1.577.8-3.258.48q-.289-.055-.593-.13a17.9,17.9,0,0,0,.346-2.392,17.785,17.785,0,0,0,1.906-1.53q.157.163.3.325h0a6.453,6.453,0,0,1,1.251,2A1.575,1.575,0,0,1,18.1,15Z" transform="translate(-3.104 -2)" fill="#fff"/>
</svg>
