<svg xmlns="http://www.w3.org/2000/svg" width="13.141" height="13.141" viewBox="0 0 13.141 13.141">
  <g id="Group_139370" data-name="Group 139370" transform="translate(-3 -3)">
    <path id="Path_158698" data-name="Path 158698" d="M15.294,3.521,9,9.814a.5.5,0,0,0-.121.2L7.864,13.043a.5.5,0,0,0,.121.516.509.509,0,0,0,.359.147.6.6,0,0,0,.162-.025l3.032-1.011a.5.5,0,0,0,.2-.121l6.292-6.292a1.72,1.72,0,0,0,0-2.436l-.3-.3A1.762,1.762,0,0,0,15.294,3.521Zm2.022,2.022L11.1,11.755l-1.961.652.652-1.961,6.211-6.211a.736.736,0,0,1,1.011,0l.3.3a.72.72,0,0,1,0,1.011Z" transform="translate(-2.393 -0.016)" fill="#fff"/>
    <path id="Path_158699" data-name="Path 158699" d="M5.022,16.141h9.1a2.021,2.021,0,0,0,2.022-2.022V8.559a.505.505,0,1,0-1.011,0v5.559a1.014,1.014,0,0,1-1.011,1.011h-9.1a1.014,1.014,0,0,1-1.011-1.011v-9.1A1.014,1.014,0,0,1,5.022,4.011h5.559a.505.505,0,1,0,0-1.011H5.022A2.021,2.021,0,0,0,3,5.022v9.1A2.021,2.021,0,0,0,5.022,16.141Z" fill="#fff"/>
  </g>
</svg>
