<svg xmlns="http://www.w3.org/2000/svg" width="17.488" height="10.104" viewBox="0 0 17.488 10.104">
  <path id="Path_158670" data-name="Path 158670" d="M9.664,27.3a1.749,1.749,0,1,0,1.749,1.749A1.742,1.742,0,0,0,9.664,27.3Zm0,2.72a.972.972,0,1,1,.972-.972A.962.962,0,0,1,9.664,30.024Zm8.161-2.72a1.749,1.749,0,1,0,1.749,1.749A1.742,1.742,0,0,0,17.825,27.3Zm0,2.72a.972.972,0,1,1,.972-.972A.962.962,0,0,1,17.825,30.024ZM20.157,24H7.332A2.339,2.339,0,0,0,5,26.332v5.441A2.339,2.339,0,0,0,7.332,34.1h2.818a2.287,2.287,0,0,0,1.749-.8l.68-.777a1.558,1.558,0,0,1,2.332,0l.68.777a2.348,2.348,0,0,0,1.749.8h2.818a2.339,2.339,0,0,0,2.332-2.332V26.332A2.339,2.339,0,0,0,20.157,24Zm1.555,7.773a1.559,1.559,0,0,1-1.555,1.555H17.339a1.561,1.561,0,0,1-1.166-.525l-.68-.777a2.348,2.348,0,0,0-1.749-.8,2.287,2.287,0,0,0-1.749.8l-.68.777a1.561,1.561,0,0,1-1.166.525H7.332a1.559,1.559,0,0,1-1.555-1.555V26.332a1.559,1.559,0,0,1,1.555-1.555H20.157a1.559,1.559,0,0,1,1.555,1.555Z" transform="translate(-5 -24)" fill="#fff"/>
</svg>
