<svg xmlns="http://www.w3.org/2000/svg" width="12.216" height="16.009" viewBox="0 0 12.216 16.009">
  <g id="_Group_" data-name="&lt;Group&gt;" transform="translate(-66 -7)">
    <path id="_Compound_Path_" data-name="&lt;Compound Path&gt;" d="M110.058,95h-8.1a.33.33,0,0,0-.334.318V99.9c0,.028-.012.057-.012.088s.012.06.012.088V105a.33.33,0,0,0,.334.318h8.1a.311.311,0,0,0,.312-.318V95.318a.311.311,0,0,0-.312-.318Zm-.331.643v4.018h-.781a.321.321,0,0,0-.266.142l-.566.838-.761-1.96a.321.321,0,0,0-.595-.012l-1.276,2.938-1.265-3.832a.321.321,0,0,0-.579-.068l-1.209,1.954h-.161V95.643Zm-7.458,9.033V100.3h.34a.321.321,0,0,0,.273-.152l.941-1.52,1.314,3.978a.321.321,0,0,0,.291.22h.015a.321.321,0,0,0,.295-.193l1.3-2.994.7,1.8a.321.321,0,0,0,.566.063l.814-1.206h.61v4.372Z" transform="translate(-34.469 -85.171)" fill="#fff"/>
    <path id="_Compound_Path_2" data-name="&lt;Compound Path&gt;" d="M77.239,11.082h-.18v-.807a1.6,1.6,0,0,0-1.35-1.587V8.277A1.273,1.273,0,0,0,74.431,7h-5.8A1.277,1.277,0,0,0,67.35,8.277v.415A1.61,1.61,0,0,0,66,10.276V19.7a1.61,1.61,0,0,0,1.35,1.584v.447a1.277,1.277,0,0,0,1.283,1.277h5.8a1.273,1.273,0,0,0,1.278-1.277v-.444a1.6,1.6,0,0,0,1.35-1.587V18.66a.968.968,0,0,0,.964-.964V16.687a.968.968,0,0,0-.964-.964V14.361h.18a.984.984,0,0,0,.977-.973V12.058A.986.986,0,0,0,77.239,11.082Zm-8.606-3.44h5.8a.629.629,0,0,1,.635.634v.395H67.993V8.277a.634.634,0,0,1,.64-.634Zm5.8,14.723h-5.8a.634.634,0,0,1-.64-.634V21.3h7.072v.427a.629.629,0,0,1-.635.634ZM76.416,19.7a.964.964,0,0,1-.964.964H67.607a.964.964,0,0,1-.964-.964V10.279a.964.964,0,0,1,.964-.964h7.844a.964.964,0,0,1,.964.964Zm.964-3.011V17.7a.346.346,0,0,1-.321.32v-1.65A.346.346,0,0,1,77.38,16.687Zm.193-3.3a.34.34,0,0,1-.334.33h-.18V11.725h.18a.342.342,0,0,1,.334.332Z" transform="translate(0 0)" fill="#fff"/>
  </g>
</svg>
