<svg xmlns="http://www.w3.org/2000/svg" width="30" height="30" viewBox="0 0 30 30">
  <g id="Group_92" data-name="Group 92" transform="translate(-1109 -411)">
    <circle id="Ellipse_5468" data-name="Ellipse 5468" cx="15" cy="15" r="15" transform="translate(1109 411)" fill="#484848"/>
    <g id="Group_103765" data-name="Group 103765" transform="translate(-1450.896 -4355.745)">
      <path id="Path_63680" data-name="Path 63680" d="M146.972,363.12h-6.358a.636.636,0,1,0,0,1.271h6.358a.636.636,0,1,0,0-1.271Z" transform="translate(2431.107 4424.354)" fill="#fff"/>
      <g id="Group_103595" data-name="Group 103595" transform="translate(2569.811 4775.279)">
        <path id="Path_63679" data-name="Path 63679" d="M242.765,224.1a4.785,4.785,0,0,0,3.288-1.148h0a5.32,5.32,0,0,0,1.121-3.973.637.637,0,0,0-.556-.556c-.352-.1-3.537-.147-4.49,1.811-.945-1.955-4.154-1.913-4.489-1.81a.636.636,0,0,0-.556.556,5.32,5.32,0,0,0,1.121,3.974,4.779,4.779,0,0,0,3.288,1.148Zm.778-3.658a3.531,3.531,0,0,1,2.387-.778,2.8,2.8,0,0,1-3.166,3.165,3.535,3.535,0,0,1,.778-2.387Zm-4.446,1.609a3.529,3.529,0,0,1-.778-2.385,2.8,2.8,0,0,1,3.166,3.163A3.543,3.543,0,0,1,239.1,222.049Z" transform="translate(-237.043 -218.381)" fill="#fff"/>
        <path id="Path_63681" data-name="Path 63681" d="M6.994,0H.636a.636.636,0,0,0,0,1.271H6.994A.636.636,0,1,0,6.994,0Z" transform="translate(4.451 10.106) rotate(-90)" fill="#fff"/>
      </g>
    </g>
  </g>
</svg>
