<svg xmlns="http://www.w3.org/2000/svg" width="30" height="30" viewBox="0 0 30 30">
  <g id="Group_94" data-name="Group 94" transform="translate(-1109 -519)">
    <circle id="Ellipse_5468" data-name="Ellipse 5468" cx="15" cy="15" r="15" transform="translate(1109 519)" fill="#484848"/>
    <g id="automotive" transform="translate(1116 526)">
      <path id="Path_158641" data-name="Path 158641" d="M16.936,2.764A4.973,4.973,0,0,0,12.463,0H10.72A8.835,8.835,0,0,0,4.575,2.463l-1.619.231A3.459,3.459,0,0,0,0,6.1v.577a.607.607,0,0,0,.607.607H1.933a1.811,1.811,0,0,0,3.419,0h6.3a1.812,1.812,0,0,0,3.465-.148l1.472-.491A.606.606,0,0,0,17,6.071V3.036A.607.607,0,0,0,16.936,2.764Zm-1.7-.336H11.706l.3-1.214h.454A3.76,3.76,0,0,1,15.238,2.429Zm-4.48-1.214-.3,1.214H6.58A7.628,7.628,0,0,1,10.72,1.214ZM3.643,7.286a.607.607,0,1,1,.607-.607A.608.608,0,0,1,3.643,7.286Zm9.714,0a.607.607,0,1,1,.607-.607A.608.608,0,0,1,13.357,7.286ZM15,5.9a1.811,1.811,0,0,0-3.348.174h-6.3a1.811,1.811,0,0,0-3.419,0H1.215A2.238,2.238,0,0,1,3.127,3.9L4.9,3.643H15.786V5.634Z" fill="#fff"/>
      <path id="Path_158642" data-name="Path 158642" d="M14.571,9.107a.607.607,0,0,0-.607.607v1.214H13.2a.607.607,0,0,0-.588.455,4.225,4.225,0,0,1-.452,1.092.607.607,0,0,0,.093.738l.542.542-.859.859-.542-.542a.609.609,0,0,0-.738-.094,4.225,4.225,0,0,1-1.093.453.607.607,0,0,0-.455.588v.766H7.893V15.02a.607.607,0,0,0-.455-.588,4.226,4.226,0,0,1-1.093-.453.608.608,0,0,0-.738.094l-.542.542-.859-.859.542-.542a.607.607,0,0,0,.093-.738,4.222,4.222,0,0,1-.452-1.092.607.607,0,0,0-.588-.455H3.036V9.714a.607.607,0,0,0-1.214,0v1.821a.607.607,0,0,0,.607.607h.924a5.531,5.531,0,0,0,.219.53l-.653.654a.607.607,0,0,0,0,.859L4.636,15.9a.625.625,0,0,0,.859,0l.654-.653a5.627,5.627,0,0,0,.53.219v.924A.607.607,0,0,0,7.286,17H9.714a.607.607,0,0,0,.607-.607v-.924a5.627,5.627,0,0,0,.53-.219l.654.653a.607.607,0,0,0,.858,0l1.717-1.717a.607.607,0,0,0,0-.859l-.653-.654a5.554,5.554,0,0,0,.219-.53h.924a.607.607,0,0,0,.607-.607V9.714A.607.607,0,0,0,14.571,9.107Z" fill="#fff"/>
      <path id="Path_158643" data-name="Path 158643" d="M8.5,12.75a2.429,2.429,0,1,0-2.429-2.429A2.431,2.431,0,0,0,8.5,12.75Zm0-3.643a1.214,1.214,0,1,1-1.214,1.214A1.216,1.216,0,0,1,8.5,9.107Z" fill="#fff"/>
    </g>
  </g>
</svg>
