<svg xmlns="http://www.w3.org/2000/svg" width="30" height="30" viewBox="0 0 30 30">
  <g id="Group_79" data-name="Group 79" transform="translate(-823 -519)">
    <circle id="Ellipse_5468" data-name="Ellipse 5468" cx="15" cy="15" r="15" transform="translate(823 519)" fill="#484848"/>
    <g id="banks" transform="translate(831.164 526.708)">
      <path id="Path_158637" data-name="Path 158637" d="M13.1,5.7a.57.57,0,0,0,.57-.57V3.418a.57.57,0,0,0-.315-.51L7.66.06A.57.57,0,0,0,7.406,0H5.7A.57.57,0,0,0,5.42.072L.293,2.92a.57.57,0,0,0-.293.5V5.127a.57.57,0,0,0,.57.57h.57v5.567A1.712,1.712,0,0,0,0,12.874v1.139a.57.57,0,0,0,.57.57H13.1a.57.57,0,0,0,.57-.57V12.874a1.712,1.712,0,0,0-1.139-1.611V5.7ZM1.139,3.753l4.7-2.614H7.271L12.533,3.77v.787H1.139ZM5.7,11.165V5.7H7.975v5.469ZM4.557,5.7v5.469H2.279V5.7Zm7.975,7.747H1.139v-.57a.57.57,0,0,1,.57-.57H11.963a.57.57,0,0,1,.57.57Zm-1.139-2.279H9.115V5.7h2.279Z" transform="translate(0 0)" fill="#fff"/>
      <path id="Path_158638" data-name="Path 158638" d="M7.874,3.8a.57.57,0,1,0-.57-.57A.57.57,0,0,0,7.874,3.8Z" transform="translate(-1.038 -0.378)" fill="#fff"/>
    </g>
  </g>
</svg>
