<svg xmlns="http://www.w3.org/2000/svg" width="22.478" height="22.409" viewBox="0 0 22.478 22.409">
  <path id="Path_158647" data-name="Path 158647" d="M21.231,14.125a3.47,3.47,0,0,1-.739-.132,10.408,10.408,0,0,1-1.444-.43,2.205,2.205,0,0,0-2.734,1.1l-.243.5a13.43,13.43,0,0,1-2.933-2.205,13.43,13.43,0,0,1-2.205-2.933l.463-.309A2.205,2.205,0,0,0,12.5,6.98a11.39,11.39,0,0,1-.43-1.444c-.055-.243-.1-.5-.132-.75A3.308,3.308,0,0,0,8.629,2.04H5.321A3.308,3.308,0,0,0,2.013,5.8,20.949,20.949,0,0,0,20.228,23.949h.419a3.3,3.3,0,0,0,3.308-3.319V17.322A3.308,3.308,0,0,0,21.231,14.125Zm.551,6.616a1.1,1.1,0,0,1-.375.827,1.169,1.169,0,0,1-.9.276A18.744,18.744,0,0,1,4.284,5.546a1.2,1.2,0,0,1,.276-.9,1.1,1.1,0,0,1,.827-.375H8.695a1.1,1.1,0,0,1,1.1.871q.066.452.165.893A12.261,12.261,0,0,0,10.47,7.74l-1.544.717a1.1,1.1,0,0,0-.54,1.466A15.977,15.977,0,0,0,16.1,17.642a1.168,1.168,0,0,0,1.466-.573l.684-1.544A15.1,15.1,0,0,0,20,16.032q.441.1.893.165a1.1,1.1,0,0,1,.871,1.1Z" transform="translate(-1.727 -1.789)" fill="#7b61ff" stroke="#18191f" stroke-width="0.5"/>
</svg>
