<svg xmlns="http://www.w3.org/2000/svg" width="30" height="30" viewBox="0 0 30 30">
  <g id="Group_77" data-name="Group 77" transform="translate(-541 -627)">
    <circle id="Ellipse_5468" data-name="Ellipse 5468" cx="15" cy="15" r="15" transform="translate(541 627)" fill="#484848"/>
    <path id="construction-head-icon" d="M14.2,8.036a.8.8,0,1,0,0-1.607h-.36A6.431,6.431,0,0,0,10.265,1.7L10.1,3.387a.4.4,0,0,1-.4.363.245.245,0,0,1-.039,0A.4.4,0,0,1,9.3,3.309L9.58.441A.4.4,0,0,0,9.18,0H5.819a.4.4,0,0,0-.4.441L5.7,3.31a.4.4,0,0,1-.361.438A.4.4,0,0,1,4.9,3.387L4.735,1.7A6.433,6.433,0,0,0,1.164,6.429H.8a.8.8,0,1,0,0,1.607Zm-.268,2.143h.8a.268.268,0,0,1,.268.268v1.072a.268.268,0,0,1-.268.268h-.8v1.071a.534.534,0,0,1-.157.379L12.7,14.307a.534.534,0,0,1-.379.157H9.107a.536.536,0,0,1-.446-.238A5.933,5.933,0,0,0,7.5,12.878a5.956,5.956,0,0,0-1.161,1.348.536.536,0,0,1-.446.238H2.679a.534.534,0,0,1-.379-.157L1.228,13.236a.534.534,0,0,1-.157-.379V11.786h-.8A.268.268,0,0,1,0,11.518V10.446a.268.268,0,0,1,.268-.268h.8A1.073,1.073,0,0,1,2.143,9.107H12.857A1.073,1.073,0,0,1,13.929,10.179ZM12.1,13.393l.757-.758V10.179H2.142v2.457l.758.758H5.61c.549-.782,1.273-1.607,1.89-1.607s1.341.826,1.89,1.607Z" transform="translate(548.5 634.768)" fill="#fff" fill-rule="evenodd"/>
  </g>
</svg>
