<svg xmlns="http://www.w3.org/2000/svg" width="30" height="30" viewBox="0 0 30 30">
  <g id="Group_73" data-name="Group 73" transform="translate(-541 -411)">
    <circle id="Ellipse_5468" data-name="Ellipse 5468" cx="15" cy="15" r="15" transform="translate(541 411)" fill="#484848"/>
    <g id="e-scooter" transform="translate(549.756 418.836)">
      <path id="Path_1457" data-name="Path 1457" d="M1096.5,625.1h-.912l-1.161-8.855a.581.581,0,0,0-.581-.5h-2.686a.567.567,0,1,0,0,1.134h2.17l1.078,8.217h-9.229a.567.567,0,1,0,0,1.134H1096.5a.567.567,0,1,0,0-1.134Z" transform="translate(-1084.599 -615.752)" fill="#fff"/>
      <path id="Path_1458" data-name="Path 1458" d="M1091.746,682.478a1.757,1.757,0,1,0,1.812,1.756A1.787,1.787,0,0,0,1091.746,682.478Zm0,2.378a.622.622,0,1,1,.642-.622.632.632,0,0,1-.642.621Z" transform="translate(-1089.085 -671.665)" fill="#fff"/>
      <path id="Path_1459" data-name="Path 1459" d="M1132.746,682.478a1.757,1.757,0,1,0,1.812,1.756A1.787,1.787,0,0,0,1132.746,682.478Zm0,2.378a.622.622,0,1,1,.642-.622.632.632,0,0,1-.642.621Z" transform="translate(-1123.23 -671.665)" fill="#fff"/>
    </g>
  </g>
</svg>
