<svg xmlns="http://www.w3.org/2000/svg" width="30" height="30" viewBox="0 0 30 30">
  <g id="Group_74" data-name="Group 74" transform="translate(-541 -465)">
    <circle id="Ellipse_5468" data-name="Ellipse 5468" cx="15" cy="15" r="15" transform="translate(541 465)" fill="#484848"/>
    <g id="Events" transform="translate(549.972 472.084)">
      <path id="Path_1488" data-name="Path 1488" d="M2191.067,620.652h-.488a2.286,2.286,0,0,0,.346-1.209v-4.238a2.3,2.3,0,0,0-2.3-2.305h-2.137a2.305,2.305,0,0,0-2.3,2.305v4.242a2.286,2.286,0,0,0,.346,1.209h-.576a.565.565,0,0,0-.565.565v4.735a.565.565,0,0,0,.565.565h7.1a.565.565,0,0,0,.565-.565v-4.735a.565.565,0,0,0-.566-.565Zm-4.576-6.622h2.137a1.171,1.171,0,0,1,1.169,1.171v4.242a1.17,1.17,0,0,1-1.168,1.171h-2.137a1.172,1.172,0,0,1-1.17-1.171v-1.126h2.283a.565.565,0,0,0,0-1.129h-2.283v-.968h2.283a.565.565,0,0,0,0-1.129h-2.277a1.171,1.171,0,0,1,1.164-1.06Zm4.012,11.357h-5.974v-3.605h5.974Z" transform="translate(-2181.461 -610.69)" fill="#fff"/>
      <path id="Path_1489" data-name="Path 1489" d="M2172.2,640.2h-.071a.565.565,0,0,0,0,1.129h.071a.565.565,0,1,0,0-1.129Z" transform="translate(-2171.54 -633.583)" fill="#fff"/>
      <path id="Path_1490" data-name="Path 1490" d="M2239.2,619.2h-.072a.565.565,0,0,0,0,1.129h.072a.565.565,0,0,0,0-1.129Z" transform="translate(-2227.741 -615.973)" fill="#fff"/>
      <path id="Path_1491" data-name="Path 1491" d="M2189.128,600.331h.072a.565.565,0,0,0,0-1.129h-.072a.565.565,0,0,0,0,1.129Z" transform="translate(-2185.795 -599.202)" fill="#fff"/>
    </g>
  </g>
</svg>
