<svg xmlns="http://www.w3.org/2000/svg" width="92.807" height="70.043" viewBox="0 0 92.807 70.043">
  <g id="Group_139362" data-name="Group 139362" transform="translate(-4 -12)">
    <path id="Path_158659" data-name="Path 158659" d="M45.76,21.5H31.751a1.751,1.751,0,0,1,0-3.5H45.76a1.751,1.751,0,0,1,0,3.5Z" transform="translate(19.528 4.507)" fill="#fff"/>
    <path id="Path_158660" data-name="Path 158660" d="M92.8,74.536H87.549a1.751,1.751,0,1,1,0-3.5h3.5V18.5H10.5V22A1.751,1.751,0,0,1,7,22V16.751A1.751,1.751,0,0,1,8.751,15H92.8a1.751,1.751,0,0,1,1.751,1.751V72.785A1.751,1.751,0,0,1,92.8,74.536Z" transform="translate(2.253 2.253)" fill="#fff"/>
    <path id="Path_158661" data-name="Path 158661" d="M89.8,77.536H23.262a1.751,1.751,0,0,1-1.238-.513L4.513,59.513A1.751,1.751,0,0,1,4,58.275V19.751A1.751,1.751,0,0,1,5.751,18H65.287a1.751,1.751,0,0,1,0,3.5H7.5V57.55L23.987,74.034H88.051V21.5H86.3a1.751,1.751,0,1,1,0-3.5h3.5a1.751,1.751,0,0,1,1.751,1.751V75.785A1.751,1.751,0,0,1,89.8,77.536Z" transform="translate(0 4.507)" fill="#fff"/>
    <path id="Path_158662" data-name="Path 158662" d="M23.262,82.043a1.751,1.751,0,0,1-1.238-.513L4.513,64.019A1.751,1.751,0,0,1,5.751,61.03H23.262a1.751,1.751,0,0,1,1.751,1.751V80.292A1.751,1.751,0,0,1,23.262,82.043ZM9.978,64.532,21.511,76.065V64.532ZM75.794,35.2a5.889,5.889,0,0,1-3.52-1.121,4.045,4.045,0,0,1-1.734-3.257V19c0-3.928,3.845-7,8.755-7a10.123,10.123,0,0,1,6,1.884A6.465,6.465,0,0,1,88.051,19a1.751,1.751,0,1,1-3.5,0A3.05,3.05,0,0,0,83.2,16.693,6.693,6.693,0,0,0,79.3,15.5c-2.847,0-5.253,1.6-5.253,3.5v11.82a.657.657,0,0,0,.315.441,2.416,2.416,0,0,0,1.436.434c1.086,0,1.751-.567,1.751-.876V24.258a1.751,1.751,0,1,1,3.5,0v6.567A4.822,4.822,0,0,1,75.794,35.2ZM71.416,59.279a7.889,7.889,0,0,1-7.88-7.88V46.146a7.88,7.88,0,1,1,15.76,0V51.4A7.889,7.889,0,0,1,71.416,59.279Zm0-17.511a4.383,4.383,0,0,0-4.378,4.378V51.4a4.378,4.378,0,0,0,8.755,0V46.146A4.383,4.383,0,0,0,71.416,41.768Z" transform="translate(0 0)" fill="#fff"/>
    <path id="Path_158663" data-name="Path 158663" d="M62.4,48.013a1.746,1.746,0,0,1-1.238-.513l-5.253-5.253a1.751,1.751,0,1,1,2.476-2.476l5.253,5.253A1.751,1.751,0,0,1,62.4,48.013Zm-21.888,0a1.751,1.751,0,0,1-1.751-1.751V34.88a4.378,4.378,0,1,0-8.755,0V46.262a1.751,1.751,0,1,1-3.5,0V34.88a7.88,7.88,0,1,1,15.76,0V46.262A1.751,1.751,0,0,1,40.509,48.013Z" transform="translate(16.899 11.266)" fill="#fff"/>
    <path id="Path_158664" data-name="Path 158664" d="M46.768,41.009H36.262a1.751,1.751,0,1,1,0-3.5H46.768a1.751,1.751,0,1,1,0,3.5Zm-28.017,7A1.751,1.751,0,0,1,17,46.262V28.751A1.751,1.751,0,0,1,18.751,27H29.257a1.751,1.751,0,0,1,0,3.5H20.5v15.76A1.751,1.751,0,0,1,18.751,48.013Z" transform="translate(9.764 11.266)" fill="#fff"/>
    <path id="Path_158665" data-name="Path 158665" d="M23.253,36.5h-3.5a1.751,1.751,0,1,1,0-3.5h3.5a1.751,1.751,0,1,1,0,3.5Z" transform="translate(10.515 15.773)" fill="#fff"/>
  </g>
</svg>
