<svg xmlns="http://www.w3.org/2000/svg" width="30" height="30" viewBox="0 0 30 30">
  <g id="Group_84" data-name="Group 84" transform="translate(-823 -249)">
    <circle id="Ellipse_5468" data-name="Ellipse 5468" cx="15" cy="15" r="15" transform="translate(823 249)" fill="#484848"/>
    <path id="Path_2483" data-name="Path 2483" d="M1708.352,612.333a7.839,7.839,0,1,0,7.839,7.839A7.839,7.839,0,0,0,1708.352,612.333Zm6.054,9.63-2.182.5-1.333-1.38.506-2.056,1.372-.749,2.065.992a6.488,6.488,0,0,1-.186,2.682.641.641,0,0,0-.241.01Zm-6.578-6.763-.1,1.916-1.85,1.029-1.483-.495-.656-2.112a6.557,6.557,0,0,1,2.362-1.51Zm-.487,11.437a6.525,6.525,0,0,1-3.334-1.578l.59-2.1h2.4l1.474,1.729Zm1.464.062,1.022-1.756a.649.649,0,0,0-.067-.746l-1.965-2.306a.647.647,0,0,0-.493-.224h-3.194a.649.649,0,0,0-.624.473l-.5,1.774a6.527,6.527,0,0,1-.224-7.135l.49,1.58a.648.648,0,0,0,.413.422l2.068.691a.648.648,0,0,0,.521-.048l2.412-1.344a.648.648,0,0,0,.336-.531l.142-2.639a.647.647,0,0,0-.283-.571l-1.008-.684c.167-.013.336-.021.505-.021a6.553,6.553,0,0,1,6.024,3.989l-1.344-.646a.647.647,0,0,0-.591.015l-1.914,1.046a.648.648,0,0,0-.319.414l-.66,2.68a.649.649,0,0,0,.163.6l1.835,1.9a.648.648,0,0,0,.466.2.624.624,0,0,0,.146-.017l1.9-.438a6.551,6.551,0,0,1-5.253,3.324Z" transform="translate(-870.352 -356.172)" fill="#fff"/>
  </g>
</svg>
