<svg xmlns="http://www.w3.org/2000/svg" width="30" height="30" viewBox="0 0 30 30">
  <g id="Group_70" data-name="Group 70" transform="translate(-541 -195)">
    <circle id="Ellipse_5468" data-name="Ellipse 5468" cx="15" cy="15" r="15" transform="translate(541 195)" fill="#484848"/>
    <path id="Healthcare" d="M781.625,612.268a3.753,3.753,0,0,0-3.7.08,1.374,1.374,0,0,1-2.746,0,3.752,3.752,0,0,0-3.7-.08,4.1,4.1,0,0,0-1.873,3.871c0,5.69,6.343,9.6,6.61,9.765a.591.591,0,0,0,.807-.189.576.576,0,0,0-.193-.8c-.06-.037-6.051-3.739-6.054-8.777a3.1,3.1,0,0,1,1.286-2.864,2.565,2.565,0,0,1,2.523.08,2.615,2.615,0,0,1,1.35,2.328.584.584,0,0,0,.587.581h.045a.584.584,0,0,0,.587-.581,2.615,2.615,0,0,1,1.35-2.328,2.565,2.565,0,0,1,2.523-.08,3.1,3.1,0,0,1,1.286,2.864c0,2.743-1.788,5.08-3.288,6.557a.575.575,0,0,0,0,.821.593.593,0,0,0,.832,0c1.652-1.633,3.635-4.237,3.635-7.381a4.1,4.1,0,0,0-1.873-3.869Z" transform="translate(-220.554 -408.906)" fill="#fff"/>
  </g>
</svg>
