<svg id="Group_10" data-name="Group 10" xmlns="http://www.w3.org/2000/svg" width="69.769" height="69.769" viewBox="0 0 69.769 69.769">
  <circle id="BG" cx="34.884" cy="34.884" r="34.884" transform="translate(0)" fill="#fff" opacity="0.102"/>
  <g id="Group_4" data-name="Group 4" transform="translate(16.28 16.281)">
    <path id="Subtraction_1" data-name="Subtraction 1" d="M17.442,34.884c-4.672,0-5.3-.02-7.193-.107a12.843,12.843,0,0,1-4.234-.81,8.918,8.918,0,0,1-5.1-5.1,12.906,12.906,0,0,1-.81-4.234C.02,22.764,0,22.144,0,17.442c0-4.663.02-5.29.105-7.193a12.8,12.8,0,0,1,.81-4.234A8.58,8.58,0,0,1,2.928,2.926,8.563,8.563,0,0,1,6.019.915a12.9,12.9,0,0,1,4.234-.81C12.122.018,12.684,0,17.441,0s5.318.018,7.189.105a12.945,12.945,0,0,1,4.235.81,8.509,8.509,0,0,1,3.089,2.011,8.581,8.581,0,0,1,2.014,3.089,13.046,13.046,0,0,1,.81,4.234c.085,1.9.105,2.529.105,7.193s-.02,5.287-.105,7.19a13.03,13.03,0,0,1-.81,4.234,8.938,8.938,0,0,1-5.1,5.1,12.831,12.831,0,0,1-4.235.81C22.736,34.864,22.111,34.884,17.442,34.884Zm-.006-23.257a5.808,5.808,0,1,0,5.808,5.808A5.815,5.815,0,0,0,17.436,11.628Z" transform="translate(0 0)" fill="#fff" stroke="rgba(0,0,0,0)" stroke-width="1"/>
    <circle id="Op_component_3" data-name="Op component 3" cx="2.093" cy="2.093" r="2.093" transform="translate(24.657 6.046)" fill="#303036"/>
  </g>
</svg>
