<svg xmlns="http://www.w3.org/2000/svg" width="30" height="30" viewBox="0 0 30 30">
  <g id="Group_78" data-name="Group 78" transform="translate(-823 -573)">
    <circle id="Ellipse_5468" data-name="Ellipse 5468" cx="15" cy="15" r="15" transform="translate(823 573)" fill="#484848"/>
    <g id="insurance-head-icon" transform="translate(830.441 579)">
      <path id="Path_158639" data-name="Path 158639" d="M12.883,1.989A7.924,7.924,0,0,0,7.559,0,7.924,7.924,0,0,0,2.234,1.989,6.507,6.507,0,0,0,0,6.855H0a.527.527,0,0,0,.915.357h0a2.645,2.645,0,0,1,1.956-.884,2.645,2.645,0,0,1,1.956.884.527.527,0,0,0,.776,0,2.7,2.7,0,0,1,1.428-.83V9.554a3,3,0,0,1-2.285,1.063H4.395a.527.527,0,0,0-.527.527V12.6a5.86,5.86,0,0,0,3.477,5.351.527.527,0,0,0,.428,0A5.86,5.86,0,0,0,11.25,12.6V11.144a.527.527,0,0,0-.527-.527h-.352A3,3,0,0,1,8.086,9.554V6.383a2.7,2.7,0,0,1,1.428.83.527.527,0,0,0,.776,0,2.6,2.6,0,0,1,3.912,0h0a.527.527,0,0,0,.915-.357h0A6.507,6.507,0,0,0,12.883,1.989ZM10.2,11.668V12.6a4.805,4.805,0,0,1-2.637,4.285A4.805,4.805,0,0,1,4.922,12.6v-.936a4.069,4.069,0,0,0,2.637-1.136A4.07,4.07,0,0,0,10.2,11.668Zm2.051-6.395A3.644,3.644,0,0,0,9.9,6.129a3.638,3.638,0,0,0-4.688,0,3.644,3.644,0,0,0-2.344-.856h0a3.61,3.61,0,0,0-1.684.415A6.378,6.378,0,0,1,7.559,1.055,6.378,6.378,0,0,1,13.93,5.688,3.61,3.61,0,0,0,12.246,5.273Z" fill="#fff"/>
      <path id="Path_158640" data-name="Path 158640" d="M6.877,13.233a.527.527,0,0,0-.746.746l.7.7a.527.527,0,0,0,.746,0l1.406-1.406a.527.527,0,0,0-.746-.746L7.207,13.563Z" fill="#fff"/>
    </g>
  </g>
</svg>
