<svg xmlns="http://www.w3.org/2000/svg" width="30" height="30" viewBox="0 0 30 30">
  <g id="Group_90" data-name="Group 90" transform="translate(-1109 -303)">
    <circle id="Ellipse_5468" data-name="Ellipse 5468" cx="15" cy="15" r="15" transform="translate(1109 303)" fill="#484848"/>
    <g id="Logistics-on-demand" transform="translate(1116.465 311.056)">
      <path id="Path_1556" data-name="Path 1556" d="M2073.653,817.669a.579.579,0,0,0-.757-.29l-4.036,1.732a.56.56,0,0,0-.3.742.575.575,0,0,0,.527.338.584.584,0,0,0,.23-.047l4.036-1.732a.56.56,0,0,0,.3-.742Z" transform="translate(-2058.639 -809.536)" fill="#fff"/>
      <path id="Path_1557" data-name="Path 1557" d="M2014.179,777.847a.583.583,0,0,0,.244-.053.559.559,0,0,0,.276-.75l-3.722-7.8a.576.576,0,0,0-.521-.325h-1.36a.564.564,0,1,0,0,1.127h.994l3.567,7.472a.577.577,0,0,0,.522.329Z" transform="translate(-2008.5 -768.925)" fill="#fff"/>
      <path id="Path_1558" data-name="Path 1558" d="M2040.582,827.323a2.245,2.245,0,1,0,2.289,2.245,2.27,2.27,0,0,0-2.289-2.245Zm0,3.363a1.118,1.118,0,1,1,1.139-1.118,1.13,1.13,0,0,1-1.138,1.118Z" transform="translate(-2033.407 -817.919)" fill="#fff"/>
      <path id="Path_1559" data-name="Path 1559" d="M2045.439,787.936a.576.576,0,0,0,.517.319.586.586,0,0,0,.225-.046l4.594-1.926a.57.57,0,0,0,.311-.314.554.554,0,0,0-.012-.437l-1.826-3.943a.58.58,0,0,0-.757-.282l-4.665,2.016a.567.567,0,0,0-.308.321.553.553,0,0,0,.022.44Zm3-5.374,1.348,2.91-3.549,1.488-1.4-2.842Z" transform="translate(-2037.718 -779.273)" fill="#fff"/>
    </g>
  </g>
</svg>
