<svg xmlns="http://www.w3.org/2000/svg" width="28.216" height="20.106" viewBox="0 0 28.216 20.106">
  <g id="Group_103" data-name="Group 103" transform="translate(-2.08 -10.68)">
    <path id="Path_158644" data-name="Path 158644" d="M26.288,30.786H6.088A4.013,4.013,0,0,1,2.08,26.778V14.688A4.013,4.013,0,0,1,6.088,10.68h20.2A4.013,4.013,0,0,1,30.3,14.688v12.09A4.013,4.013,0,0,1,26.288,30.786ZM6.088,12.095a2.593,2.593,0,0,0-2.593,2.593v12.09a2.593,2.593,0,0,0,2.593,2.593h20.2a2.593,2.593,0,0,0,2.593-2.593V14.688a2.593,2.593,0,0,0-2.593-2.593Z" fill="#7b61ff"/>
    <path id="Path_158645" data-name="Path 158645" d="M16.612,26.4a4.013,4.013,0,0,1-2.419-.806L3.183,17.268a.707.707,0,1,1,.853-1.127l11.01,8.337a2.617,2.617,0,0,0,3.131,0l11.01-8.337a.707.707,0,1,1,.853,1.127L19.031,25.6a4.013,4.013,0,0,1-2.419.806Z" transform="translate(-0.424 -2.802)" fill="#7b61ff"/>
    <path id="Path_158646" data-name="Path 158646" d="M3.376,38.881A.707.707,0,0,1,2.9,37.646l8.676-7.738a.708.708,0,1,1,.943,1.056L3.848,38.7a.688.688,0,0,1-.472.179Zm26.245,0a.688.688,0,0,1-.472-.179l-8.676-7.738a.708.708,0,1,1,.943-1.056l8.671,7.738a.707.707,0,0,1-.472,1.235Z" transform="translate(-0.311 -10.067)" fill="#7b61ff"/>
  </g>
</svg>
