<svg xmlns="http://www.w3.org/2000/svg" width="30" height="30" viewBox="0 0 30 30">
  <g id="Group_95" data-name="Group 95" transform="translate(-1109 -573)">
    <circle id="Ellipse_5468" data-name="Ellipse 5468" cx="15" cy="15" r="15" transform="translate(1109 573)" fill="#484848"/>
    <path id="manufacturing-head-icon" d="M7.072,4.5h4.5V6.429h1.286V5.052a2.309,2.309,0,0,0,1.286,0V6.429h1.286V4.254A2.558,2.558,0,0,0,11.817.643H7.072a1.925,1.925,0,0,0-1.81,1.286h-1.4V1.286A.643.643,0,0,0,3.5.711L2.216.068a.644.644,0,0,0-.575,0L.356.711a.643.643,0,0,0,.575,1.15l1-.5.643.321V3.46l-.643.321-1-.5a.643.643,0,1,0-.575,1.15l1.286.643a.644.644,0,0,0,.575,0L3.5,4.432a.643.643,0,0,0,.355-.575V3.214h1.4A1.925,1.925,0,0,0,7.072,4.5ZM11.02,3.214H8.882A1.906,1.906,0,0,0,9,2.571a1.906,1.906,0,0,0-.118-.643H11.02a2.542,2.542,0,0,0-.091.643A2.542,2.542,0,0,0,11.02,3.214ZM13.5,1.286a1.286,1.286,0,1,1-1.286,1.286A1.287,1.287,0,0,1,13.5,1.286Zm-6.429.643a.643.643,0,1,1-.643.643A.643.643,0,0,1,7.072,1.929Zm9,5.143H6.429A1.931,1.931,0,0,0,4.5,9v5.143a1.931,1.931,0,0,0,1.929,1.928h4.179v.643H9.643a.643.643,0,1,0,0,1.286h3.214a.643.643,0,1,0,0-1.286h-.964v-.643h4.178A1.931,1.931,0,0,0,18,14.143V9A1.931,1.931,0,0,0,16.071,7.071Zm.643,7.071a.643.643,0,0,1-.643.643H6.429a.643.643,0,0,1-.643-.643V9a.643.643,0,0,1,.643-.643h9.643A.644.644,0,0,1,16.714,9ZM8.545,9.831a.643.643,0,0,1,.909.909l-.831.831.831.831a.643.643,0,1,1-.909.909L7.26,12.026a.643.643,0,0,1,0-.909Zm5.409,0a.643.643,0,0,0-.909.909l.831.831-.831.831a.643.643,0,1,0,.909.909l1.286-1.286a.642.642,0,0,0,0-.909Zm-3.007.3a.643.643,0,0,1,1.247.311l-.643,2.571a.643.643,0,0,1-1.247-.311Z" transform="translate(1115 579)" fill="#fff" fill-rule="evenodd"/>
  </g>
</svg>
