<svg xmlns="http://www.w3.org/2000/svg" width="30" height="30" viewBox="0 0 30 30">
  <g id="Group_75" data-name="Group 75" transform="translate(-541 -519)">
    <circle id="Ellipse_5468" data-name="Ellipse 5468" cx="15" cy="15" r="15" transform="translate(541 519)" fill="#484848"/>
    <g id="oil-and-gas" transform="translate(548.761 525.867)">
      <path id="Path_158634" data-name="Path 158634" d="M8.116,4.95a1.545,1.545,0,0,1,0,2.185L5.01,10.24A1.545,1.545,0,1,1,2.825,8.055L5.93,4.95A1.545,1.545,0,0,1,8.116,4.95ZM3.745,8.975,6.85,5.87a.244.244,0,0,1,.345.345L4.09,9.32a.244.244,0,0,1-.345-.345Z" transform="translate(-0.102 -0.194)" fill="#fff" fill-rule="evenodd"/>
      <path id="Path_158635" data-name="Path 158635" d="M12.588,13A1.789,1.789,0,0,1,9.01,13a5.123,5.123,0,0,1,1.213-2.263.727.727,0,0,1,1.152,0A5.124,5.124,0,0,1,12.588,13Zm-1.3.033a.49.49,0,0,1-.973,0,2.131,2.131,0,0,1,.231-.486c.077-.131.163-.266.255-.4.092.135.179.27.255.4A2.131,2.131,0,0,1,11.286,13.035Z" transform="translate(-0.389 -0.452)" fill="#fff" fill-rule="evenodd"/>
      <path id="Path_158636" data-name="Path 158636" d="M11.711,2.131V.813A.813.813,0,0,0,10.9,0H7.97a.813.813,0,0,0-.813.813v1.3H5.876a1.627,1.627,0,0,0-1.146.473L.48,6.809A1.627,1.627,0,0,0,0,7.963v6.677a1.627,1.627,0,0,0,1.627,1.627h9.109a1.626,1.626,0,0,0,.544-.093,4.068,4.068,0,0,0,1.083-7.542v-5.7A.814.814,0,0,0,11.711,2.131Zm-1.3-.016V1.3H8.458v.813ZM6.344,12.2a4.052,4.052,0,0,0,1.085,2.765h-5.8a.325.325,0,0,1-.325-.325V7.963a.325.325,0,0,1,.1-.231L5.646,3.51a.325.325,0,0,1,.229-.095h5.185V8.185A4.07,4.07,0,0,0,6.344,12.2Zm4.066,2.765A2.765,2.765,0,1,0,7.645,12.2,2.765,2.765,0,0,0,10.41,14.965Z" fill="#fff" fill-rule="evenodd"/>
    </g>
  </g>
</svg>
