<svg xmlns="http://www.w3.org/2000/svg" width="30" height="30" viewBox="0 0 30 30">
  <g id="Group_81" data-name="Group 81" transform="translate(-823 -411)">
    <circle id="Ellipse_5468" data-name="Ellipse 5468" cx="15" cy="15" r="15" transform="translate(823 411)" fill="#484848"/>
    <path id="Path_2484" data-name="Path 2484" d="M1875.445,626.582a3.838,3.838,0,0,0-1.79-1.145,2.609,2.609,0,0,0,.217-3.467l.673-1.747a.528.528,0,0,0-.493-.719h-4.5a.528.528,0,0,0-.486.737l.721,1.681a2.609,2.609,0,0,0,.273,3.6,3.792,3.792,0,0,0-1.654,1.153,5.992,5.992,0,0,0-.966,4.411.529.529,0,1,0,1.041-.186,4.967,4.967,0,0,1,.739-3.551,4.043,4.043,0,0,1,5.429-.07,5.184,5.184,0,0,1,.872,3.639.529.529,0,0,0,1.047.152,6.19,6.19,0,0,0-1.123-4.488Zm-3.636-4.565a1.555,1.555,0,0,1,1.086.44h0a1.56,1.56,0,1,1-1.088-.444Zm1.471-1.456-.268.694a2.6,2.6,0,0,0-2.372-.017l-.291-.677Z" transform="translate(-1033.99 -199.521)" fill="#fff"/>
  </g>
</svg>
