<svg xmlns="http://www.w3.org/2000/svg" width="30" height="30" viewBox="0 0 30 30">
  <g id="Group_87" data-name="Group 87" transform="translate(-1109 -141)">
    <circle id="Ellipse_5468" data-name="Ellipse 5468" cx="15" cy="15" r="15" transform="translate(1109 141)" fill="#484848"/>
    <g id="Group_1018" data-name="Group 1018" transform="translate(-35.748 -853.114)">
      <path id="Path_2494" data-name="Path 2494" d="M450.154,126.158h.7a.32.32,0,0,0,.324-.32v-7.826l.171.161a.541.541,0,0,0,.785-.045.6.6,0,0,0-.043-.818l-5.013-4.685a.767.767,0,0,0-1.057,0l-5.058,4.685a.6.6,0,0,0-.046.818.541.541,0,0,0,.785.048l.068-.063v8.012l.007.216a.3.3,0,0,0,.3.3h8.8a.3.3,0,0,0,.3-.307v-.976a.32.32,0,0,0-.32-.32h-.634c-.177,0-.159.143-.159.32H443.04v-8.223l3.515-3.116,3.383,3.008v8.818C449.938,126.013,449.979,126.156,450.154,126.158Z" transform="translate(713.222 889.587)" fill="#fff"/>
      <g id="project_estimation" data-name="project estimation" transform="translate(1158.453 1007.55)">
        <path id="Path_1705" data-name="Path 1705" d="M1598.91,965.644h1.073a.45.45,0,1,0,0-.9h-.181V964.1a.45.45,0,1,0-.9,0v.649c-.586,0-1.027.341-1.027.79v.9c0,.45.444.79,1.033.79h.489a.476.476,0,0,1,.135.018v.569a.478.478,0,0,1-.135.018h-1.073a.45.45,0,0,0,0,.9h.578v.722a.45.45,0,1,0,.9,0v-.781a.8.8,0,0,0,.63-.732v-.821c0-.45-.444-.79-1.033-.79h-.489a.491.491,0,0,1-.135-.018v-.649A.482.482,0,0,1,1598.91,965.644Z" transform="translate(-1597.849 -963.673)" fill="#fff"/>
      </g>
    </g>
  </g>
</svg>
