<svg xmlns="http://www.w3.org/2000/svg" width="30" height="30" viewBox="0 0 30 30">
  <g id="Group_69" data-name="Group 69" transform="translate(-541 -249)">
    <circle id="Ellipse_5468" data-name="Ellipse 5468" cx="15" cy="15" r="15" transform="translate(541 249)" fill="#484848"/>
    <g id="Restaurants" transform="translate(548.106 255.797)">
      <path id="Path_1470" data-name="Path 1470" d="M1543.643,610.01h.069a1.581,1.581,0,0,0,1.055-.435l2.944-2.7a.54.54,0,0,0,.028-.771.559.559,0,0,0-.783-.028L1544,608.785a.205.205,0,0,0-.036.035c-.157.139-.551.194-1.177-.246l2.865-2.793a.54.54,0,0,0,0-.772.56.56,0,0,0-.783,0l-2.89,2.818a1.262,1.262,0,0,1-.312-.839,1.392,1.392,0,0,1,.517-.885.483.483,0,0,0,.054-.044l2.311-2.169a.541.541,0,0,0,.019-.771.56.56,0,0,0-.783-.018l-2.289,2.15a2.434,2.434,0,0,0-.932,1.652,2.35,2.35,0,0,0,.629,1.7l-6.494,6.333a.54.54,0,0,0,0,.771.56.56,0,0,0,.783,0l6.514-6.356a2.756,2.756,0,0,0,1.647.658Z" transform="translate(-1534.533 -602.94)" fill="#fff"/>
      <path id="Path_1471" data-name="Path 1471" d="M1566.733,632.215a.56.56,0,0,0-.783-.031l-6.276,5.7a3.015,3.015,0,0,0-3.54.186,6.079,6.079,0,0,0-1.587,2.366,2.783,2.783,0,0,0,.08,2.811,2.088,2.088,0,0,0,1.668.644,4.846,4.846,0,0,0,1.079-.133,6.742,6.742,0,0,0,2.554-1.173,2.9,2.9,0,0,0,.537-3.935l6.236-5.666a.54.54,0,0,0,.032-.773Zm-7.509,9.53a5.723,5.723,0,0,1-2.1.952c-.8.183-1.411.129-1.643-.144s-.2-.945.1-1.727a5.088,5.088,0,0,1,1.256-1.911,1.869,1.869,0,0,1,1.188-.423q.088,0,.177.008a1.862,1.862,0,0,1,1.263.657,1.822,1.822,0,0,1-.247,2.588Z" transform="translate(-1551.099 -627.503)" fill="#fff"/>
    </g>
  </g>
</svg>
