<svg xmlns="http://www.w3.org/2000/svg" width="30" height="30" viewBox="0 0 30 30">
  <g id="Group_80" data-name="Group 80" transform="translate(-823 -465)">
    <circle id="Ellipse_5468" data-name="Ellipse 5468" cx="15" cy="15" r="15" transform="translate(823 465)" fill="#484848"/>
    <g id="social-media" transform="translate(831.576 473.442)">
      <path id="Path_1460" data-name="Path 1460" d="M1237.833,651.97a2.464,2.464,0,0,0,.711-1.729,2.524,2.524,0,1,0-5.048,0,2.465,2.465,0,0,0,.717,1.735,3.222,3.222,0,0,0-1.991,2.779.542.542,0,0,0,.536.542h.011a.545.545,0,0,0,.547-.527c.006-.207.13-2.025,2.708-2.042,2.6-.01,2.823,1.921,2.839,2.137a.542.542,0,0,0,.545.506h.034a.542.542,0,0,0,.51-.572,3.366,3.366,0,0,0-2.119-2.829Zm-1.813-3.142a1.413,1.413,0,1,1,0,2.825h0a1.412,1.412,0,0,1,0-2.825Z" transform="translate(-1232.221 -642.255)" fill="#fff"/>
      <path id="Path_1461" data-name="Path 1461" d="M1265.151,612.712a.542.542,0,0,0-.547-.539h-8.037a.542.542,0,0,0-.547.539v3.935a.547.547,0,0,0,1.093,0v-3.4h6.944v6.38a.464.464,0,0,0,.005.052,2.567,2.567,0,0,1-1.1,1.425,2.992,2.992,0,0,0,.057-1.611.111.111,0,0,0-.013-.034c-.006-.019-.012-.037-.02-.055s-.016-.029-.024-.044a.449.449,0,0,0-.029-.046c-.01-.013-.021-.026-.032-.038a.515.515,0,0,0-.039-.041l-.032-.027a.573.573,0,0,0-.052-.037l-.03-.016a.567.567,0,0,0-.066-.032l-.027-.008a.543.543,0,0,0-.076-.019h-.026a.52.52,0,0,0-.064-.006h-2.623a.539.539,0,1,0,0,1.079h2.142a1.434,1.434,0,0,1-.186.8,1.074,1.074,0,0,1-.759.438c-.272.049-.91.164-.893.715,0,.122.064.525.675.6a2.275,2.275,0,0,0,.275.015,4.169,4.169,0,0,0,4.006-2.81,2.179,2.179,0,0,1,.021-.3Z" transform="translate(-1252.304 -612.173)" fill="#fff"/>
      <path id="Path_1462" data-name="Path 1462" d="M1269.788,626.379h2.86a.539.539,0,1,0,0-1.079h-2.86a.539.539,0,1,0,0,1.079Z" transform="translate(-1263.463 -623.277)" fill="#fff"/>
      <path id="Path_1463" data-name="Path 1463" d="M1269.788,637.379h2.86a.539.539,0,1,0,0-1.079h-2.86a.539.539,0,1,0,0,1.079Z" transform="translate(-1263.463 -632.581)" fill="#fff"/>
    </g>
  </g>
</svg>
