<svg xmlns="http://www.w3.org/2000/svg" width="30" height="30" viewBox="0 0 30 30">
  <g id="Group_76" data-name="Group 76" transform="translate(-541 -573)">
    <circle id="Ellipse_5468" data-name="Ellipse 5468" cx="15" cy="15" r="15" transform="translate(541 573)" fill="#484848"/>
    <path id="telecom-head-icon" d="M10.627,4A4.8,4.8,0,0,1,9.555,7.017a.528.528,0,1,0,.819.665,5.84,5.84,0,0,0-.109-7.5.528.528,0,0,0-.8.689A4.786,4.786,0,0,1,10.627,4ZM1.719,7.877a.528.528,0,0,0,.409-.86A4.785,4.785,0,0,1,2.217.873a.528.528,0,0,0-.8-.689,5.84,5.84,0,0,0-.109,7.5A.526.526,0,0,0,1.719,7.877ZM2.846,6.25a.528.528,0,0,0,.843-.634,2.692,2.692,0,0,1,.069-3.324.528.528,0,1,0-.816-.669,3.747,3.747,0,0,0-.1,4.627Zm5.148-.634a2.693,2.693,0,0,0-.069-3.324.528.528,0,1,1,.816-.669,3.747,3.747,0,0,1,.1,4.627.528.528,0,0,1-.843-.634ZM9.32,16.946H10.8A.528.528,0,1,1,10.8,18H.883a.528.528,0,1,1,0-1.055H2.361l2.7-11.491a1.655,1.655,0,1,1,1.567,0ZM5.223,11.5l2.017,1.2-.492-2.1ZM6.44,4a.6.6,0,1,0-.6.6A.6.6,0,0,0,6.44,4ZM6.5,9.53l-.656-2.8-.865,3.687ZM7,13.787l-2.47-1.472-.8,3.406Zm.687.82L3.734,16.946h4.5Z" transform="translate(550.159 578.999)" fill="#fff" fill-rule="evenodd"/>
  </g>
</svg>
