<svg xmlns="http://www.w3.org/2000/svg" width="30" height="30" viewBox="0 0 30 30">
  <g id="Group_72" data-name="Group 72" transform="translate(-541 -357)">
    <circle id="Ellipse_5468" data-name="Ellipse 5468" cx="15" cy="15" r="15" transform="translate(541 357)" fill="#484848"/>
    <g id="Travel" transform="translate(548.117 365.011)">
      <path id="Path_1503" data-name="Path 1503" d="M2661.622,625.283a3.031,3.031,0,0,0-1.836-1.758,3.166,3.166,0,0,0-2.78.814c-2.553,2-7.83,6.245-7.883,6.286a.613.613,0,0,0-.083.883.664.664,0,0,0,.913.081c.052-.042,5.322-4.281,7.871-6.277a2.089,2.089,0,0,1,1.619-.58,1.435,1.435,0,0,1,.759.6l-3.93,3.07a.622.622,0,0,0-.2.269l-3.042,7.893a.623.623,0,0,0,.381.805.671.671,0,0,0,.227.04.649.649,0,0,0,.608-.408l2.979-7.733,4.206-3.283A.614.614,0,0,0,2661.622,625.283Z" transform="translate(-2645.9 -623.45)" fill="#fff"/>
      <path id="Path_1504" data-name="Path 1504" d="M2641.312,658.916a.663.663,0,0,0-.911-.093l-4.57,3.569-1.835-4.1a.656.656,0,0,0-.853-.326.623.623,0,0,0-.336.824l2.175,4.856a.641.641,0,0,0,.439.36.665.665,0,0,0,.561-.125l5.229-4.086a.613.613,0,0,0,.1-.883Z" transform="translate(-2632.751 -651.749)" fill="#fff"/>
    </g>
  </g>
</svg>
