<svg xmlns="http://www.w3.org/2000/svg" width="30" height="30" viewBox="0 0 30 30">
  <g id="Group_83" data-name="Group 83" transform="translate(-823 -303)">
    <circle id="Ellipse_5468" data-name="Ellipse 5468" cx="15" cy="15" r="15" transform="translate(823 303)" fill="#484848"/>
    <g id="wellness-02" transform="translate(815.082 291.039)">
      <path id="Path_21555" data-name="Path 21555" d="M109.391,58.53a2.053,2.053,0,0,0-1.03.242,1.481,1.481,0,0,0-.627.705,4.43,4.43,0,0,0-.235,1.686,6.6,6.6,0,0,1-.166,1.66,2.576,2.576,0,0,0-1.013.078,5.735,5.735,0,0,0-1.945.913A2.431,2.431,0,0,0,103.22,65.7v3.545h3.58v-.588c0-.83.316-1.066.892-1.494,1.245-.933,2.281-2,2.281-5.67V58.53ZM104.4,68.077V65.7c0-.321.324-.724.866-1.079a4.529,4.529,0,0,1,1.453-.614,2.2,2.2,0,0,1-1.034.963l-.2.1.63.913.144-.062a3.7,3.7,0,0,0,2.016-2.241c.017-.046.034-.09.049-.128a6.3,6.3,0,0,0,.355-2.371,3.76,3.76,0,0,1,.129-1.215V61.5c0,3.376-.961,4.1-1.81,4.73a2.785,2.785,0,0,0-1.316,1.85Z" transform="translate(-80.056 -35.332)" fill="#fff"/>
      <path id="Path_21556" data-name="Path 21556" d="M21.523,63.865a5.742,5.742,0,0,0-1.947-.913,2.567,2.567,0,0,0-1.011-.078A6.554,6.554,0,0,1,18.4,61.21a4.388,4.388,0,0,0-.232-1.683,1.66,1.66,0,0,0-1.66-.948H15.92v2.964c0,3.666,1.034,4.737,2.281,5.67.576.431.892.67.892,1.494V69.3h3.582V65.751a2.429,2.429,0,0,0-1.152-1.886Zm-1.1,1.257-.2-.1a2.214,2.214,0,0,1-1.034-.963,4.547,4.547,0,0,1,1.456.614c.541.353.864.755.864,1.079v2.37H20.223a2.776,2.776,0,0,0-1.318-1.85c-.849-.635-1.81-1.354-1.81-4.73V60.015a3.761,3.761,0,0,1,.129,1.215,6.4,6.4,0,0,0,.356,2.37c.015.038.032.083.051.128a3.676,3.676,0,0,0,2.016,2.241l.145.062Z" transform="translate(0 -35.379)" fill="#fff"/>
      <path id="Path_21557" data-name="Path 21557" d="M52.126,20a2.726,2.726,0,0,0-1.957.961A2.753,2.753,0,0,0,48.182,20a2.847,2.847,0,0,0-2.592,3.017c0,1.482,1.411,2.68,3.2,4.2.7.591.929.793,1.1.94l.28.242.319-.275c.166-.145.364-.319,1.059-.908,1.795-1.516,3.206-2.714,3.206-4.2A2.879,2.879,0,0,0,52.126,20ZM48.2,21.173a2.022,2.022,0,0,1,1.486,1.057l.482.7.485-.7a2.017,2.017,0,0,1,1.478-1.055,1.725,1.725,0,0,1,1.444,1.842c0,.939-1.23,1.979-2.788,3.3-.2.172-.408.345-.618.524-.207-.179-.415-.353-.616-.524C48,25,46.765,23.956,46.765,23.017a1.7,1.7,0,0,1,1.426-1.842v-.191Z" transform="translate(-27.208)" fill="#fff"/>
    </g>
  </g>
</svg>
