<svg xmlns="http://www.w3.org/2000/svg" width="69.769" height="69.769" viewBox="0 0 69.769 69.769">
  <g id="Group_8" data-name="Group 8" transform="translate(0)">
    <circle id="BG" cx="34.884" cy="34.884" r="34.884" transform="translate(0)" fill="#fff" opacity="0.102"/>
    <g id="Group_5" data-name="Group 5" transform="translate(17.441 23.984)">
      <path id="Op_component_1" data-name="Op component 1" d="M329.07,7675.556a4.332,4.332,0,0,1,3.085,3.029,46.994,46.994,0,0,1,0,16.492,4.332,4.332,0,0,1-3.085,3.03c-2.72.716-13.628.716-13.628.716s-10.909,0-13.629-.716a4.332,4.332,0,0,1-3.084-3.03,46.989,46.989,0,0,1,0-16.492,4.332,4.332,0,0,1,3.084-3.029c2.72-.716,13.629-.716,13.629-.716S326.351,7674.84,329.07,7675.556Z" transform="translate(-298 -7674.84)" fill="#fff"/>
      <path id="Op_component_2" data-name="Op component 2" d="M306.125,7679.025v10.429l8.721-5.214Z" transform="translate(-291.953 -7671.727)" fill="#303036"/>
    </g>
  </g>
</svg>
